<?xml version="1.0" encoding="UTF-8"?>
<svg version="1.1" xmlns="http://www.w3.org/2000/svg" width="500" height="440">
<path d="M0 0 C1.55932694 0.21227812 3.12225372 0.39950741 4.6875 0.5625 C12.57634937 2.11209541 17.54350837 7.46819589 22.0078125 13.88671875 C29.25415466 26.38744322 32.38583558 39.74399196 33.28051758 54.04907227 C33.63565074 59.20455347 34.11849068 64.57288496 37 69 C40.55431028 71.64720459 43.41308983 72.4361781 47.7890625 72.80859375 C49.45001953 72.97004883 49.45001953 72.97004883 51.14453125 73.13476562 C53.44124577 73.33453597 55.73811898 73.53249125 58.03515625 73.72851562 C66.80806556 74.58552237 76.17707327 75.91967911 83 82 C83.88842126 84.44751348 84.55334668 86.67050059 85.125 89.1875 C85.37636719 90.19635254 85.37636719 90.19635254 85.6328125 91.22558594 C86.325953 94.02657752 86.96569837 96.83549709 87.5546875 99.66015625 C88.29819382 103.7201857 88.29819382 103.7201857 91.1875 106.4375 C93 108 93 108 93.24609375 109.890625 C92.8163242 118.04238295 88.29923374 123.05259215 82.5 128.375 C79.54036034 130.80071803 76.75160891 132.08497344 73 133 C73.350625 133.804375 73.70125 134.60875 74.0625 135.4375 C76.03971533 142.95091826 74.00309311 150.36475695 70.3125 157.0625 C63.99612039 165.08600924 55.53968637 167.52695703 45.6875 168.875 C36.40928523 169.51986883 27.72922772 167.04080069 20 162 C19.01 161.67 18.02 161.34 17 161 C14.7226499 163.81509993 14.7226499 163.81509993 15 167 C19.83360197 169.2361638 24.21881675 170.62326517 29.5 171.5625 C30.18634521 171.68616943 30.87269043 171.80983887 31.57983398 171.93725586 C37.56111773 172.98851179 43.56522124 173.77276047 49.59765625 174.47265625 C56.27497119 175.50760173 60.52597127 176.53859694 64.65625 181.91015625 C80.31099301 206.25692227 76.33503494 251.35934124 72.32080078 278.79736328 C71.9672129 281.22511816 71.65352756 283.65662535 71.33984375 286.08984375 C69.70578911 298.29685819 67.61752629 309.91636323 62 321 C61.26473103 323.04207852 61.26473103 323.04207852 60.8125 324.875 C60.544375 325.90625 60.27625 326.9375 60 328 C59.01 328 58.02 328 57 328 C57.33 330.31 57.66 332.62 58 335 C56.35 335.33 54.7 335.66 53 336 C52.67 337.65 52.34 339.3 52 341 C48.28111761 340.49287967 45.26545761 339.88391785 42 338 C42.33 340.31 42.66 342.62 43 345 C41.1953125 345.68359375 41.1953125 345.68359375 39 346 C37.4296875 344.78515625 37.4296875 344.78515625 35.875 343.0625 C33.21900685 340.58903427 33.21900685 340.58903427 29.78125 339.7734375 C28.15637013 339.88422476 26.53209173 340.00415819 24.9085083 340.1325531 C21.45382757 339.9751086 19.20189188 338.96517951 16.05761719 337.54321289 C8.81288395 334.6475261 2.43847989 334.28831779 -5.296875 334.37109375 C-6.61109436 334.36868179 -7.92531372 334.36626984 -9.27935791 334.36378479 C-12.03600766 334.36095439 -14.79183241 334.37535952 -17.54833984 334.40307617 C-21.05740179 334.43729149 -24.565005 334.43107066 -28.07413864 334.4124136 C-31.46102566 334.39923517 -34.84749818 334.41757273 -38.234375 334.43359375 C-39.48144226 334.42863388 -40.72850952 334.42367401 -42.0133667 334.41856384 C-48.4498258 334.50504582 -53.44229579 335.01638802 -59.16729736 338.07167053 C-62.57737991 339.79899937 -66.22112389 340.14244906 -70 339.83984375 C-74.13009298 339.523215 -74.13009298 339.523215 -77.69921875 341.33203125 C-79.25894525 342.96383808 -79.25894525 342.96383808 -80.578125 344.6875 C-82 346 -82 346 -86 346 C-86.125 340.25 -86.125 340.25 -85 338 C-86.0828125 338.4640625 -86.0828125 338.4640625 -87.1875 338.9375 C-89.80307309 339.92560539 -92.25118982 340.5287754 -95 341 C-95.33 339.35 -95.66 337.7 -96 336 C-97.65 335.67 -99.3 335.34 -101 335 C-100.67 332.69 -100.34 330.38 -100 328 C-100.62777344 327.91878906 -101.25554687 327.83757812 -101.90234375 327.75390625 C-104 327 -104 327 -104.94140625 325.21484375 C-105.14636719 324.46332031 -105.35132813 323.71179688 -105.5625 322.9375 C-106.41464473 320.0053891 -107.29040093 317.28031073 -108.4375 314.4375 C-112.84455159 302.72402078 -114.82231503 290.40122583 -116 278 C-116.09023437 277.1224707 -116.18046875 276.24494141 -116.2734375 275.34082031 C-117.6827812 261.37593836 -118.20579601 247.46368157 -118.25 233.4375 C-118.25517639 232.69367065 -118.26035278 231.94984131 -118.26568604 231.18347168 C-118.31053916 223.03012104 -118.04264934 214.98910485 -117.125 206.8828125 C-117.01191498 205.86259254 -117.01191498 205.86259254 -116.89654541 204.82176208 C-115.53965107 194.00674676 -111.95124435 182.45758854 -103.109375 175.515625 C-93.53949531 169.49014519 -81.51850147 168.77229979 -70.50976562 167.64575195 C-66.63034137 167.29868101 -66.63034137 167.29868101 -63 166 C-64.32 163.36 -65.64 160.72 -67 158 C-67.763125 158.474375 -68.52625 158.94875 -69.3125 159.4375 C-76.64325471 163.69956669 -87.62618375 162.92853696 -95.87109375 161.50390625 C-102.37768756 159.45102371 -108.35230032 155.76513312 -114 152 C-114 151.34 -114 150.68 -114 150 C-114.66 150 -115.32 150 -116 150 C-120.71098704 143.71868394 -121.24568809 139.6163308 -121 132 C-120.67 131.34 -120.34 130.68 -120 130 C-121.134375 130.0825 -122.26875 130.165 -123.4375 130.25 C-129.72554672 130.27237739 -134.87202298 127.41865134 -140 124 C-140 123.34 -140 122.68 -140 122 C-140.66 122 -141.32 122 -142 122 C-146.99268232 113.78623231 -147.82842185 106.63880012 -147 97 C-145.55759109 91.70878711 -143.25322741 86.43621919 -140 82 C-139.34 82 -138.68 82 -138 82 C-137.67 81.01 -137.34 80.02 -137 79 C-136.34 79 -135.68 79 -135 79 C-135 78.34 -135 77.68 -135 77 C-125.21022052 71.76183228 -116.39022119 69.62216215 -105.3125 71.6875 C-99.17882745 72.26614835 -94.72102803 69.84117018 -90 66.0625 C-82.0401149 58.64888153 -76.97942101 48.53820601 -72 39 C-70.70666 36.53401064 -69.41206907 34.06868348 -68.11669922 31.60375977 C-67.21750048 29.89065606 -66.32062452 28.1763308 -65.42626953 26.46069336 C-65.01231934 25.66928955 -64.59836914 24.87788574 -64.171875 24.0625 C-63.8015918 23.35222656 -63.43130859 22.64195313 -63.04980469 21.91015625 C-62.12180282 20.22162448 -61.06876305 18.60314458 -60 17 C-59.34 17 -58.68 17 -58 17 C-57.773125 16.443125 -57.54625 15.88625 -57.3125 15.3125 C-55.62449964 12.33840412 -53.53323483 10.27991135 -51 8 C-50.34 8 -49.68 8 -49 8 C-49 7.34 -49 6.68 -49 6 C-46.98828125 4.5625 -46.98828125 4.5625 -44.3125 3 C-43.44238281 2.484375 -42.57226562 1.96875 -41.67578125 1.4375 C-28.8496671 -5.45302556 -13.34197961 -5.4118957 0 0 Z " fill="#F9D5B6" transform="translate(276,74)"/>
<path d="M0 0 C0.495 0.99 0.495 0.99 1 2 C-3.455 2.495 -3.455 2.495 -8 3 C-4.98211972 29.14103557 -4.98211972 29.14103557 8.4140625 51.140625 C10 53 10 53 10.9609375 55.046875 C13.6772827 60.15278703 19.40069751 61.55909396 24.578125 63.20703125 C34.74621602 65.56333545 47.5537008 64.86627534 57 60 C58.01002071 59.01012215 59.00835777 58.0082885 60 57 C62.07190547 55.19010592 64.16336447 53.40482696 66.2578125 51.62109375 C68.09545907 50.1008801 68.09545907 50.1008801 69 48 C69.66 48 70.32 48 71 48 C71 47.34 71 46.68 71 46 C71.66 46 72.32 46 73 46 C73.26683594 45.18144531 73.53367187 44.36289062 73.80859375 43.51953125 C75.15362045 39.54619009 76.59325625 35.61620775 78.0625 31.6875 C78.4656543 30.59598633 78.4656543 30.59598633 78.87695312 29.48242188 C80.88158017 24.11841983 80.88158017 24.11841983 82 23 C82.56344744 20.14772981 83.08134945 17.30368392 83.5625 14.4375 C83.70107422 13.63119141 83.83964844 12.82488281 83.98242188 11.99414062 C84.32517763 9.99670189 84.66304388 7.99842528 85 6 C83.02 5.01 83.02 5.01 81 4 C89.34971447 5.06087553 97.68135669 6.21776326 106 7.5 C106.78802002 7.61835205 107.57604004 7.7367041 108.38793945 7.85864258 C122.11863843 10.00884759 122.11863843 10.00884759 126.65625 15.91015625 C142.31099301 40.25692227 138.33503494 85.35934124 134.32080078 112.79736328 C133.9672129 115.22511816 133.65352756 117.65662535 133.33984375 120.08984375 C131.70578911 132.29685819 129.61752629 143.91636323 124 155 C123.26473103 157.04207852 123.26473103 157.04207852 122.8125 158.875 C122.544375 159.90625 122.27625 160.9375 122 162 C121.01 162 120.02 162 119 162 C119.33 164.31 119.66 166.62 120 169 C118.35 169.33 116.7 169.66 115 170 C114.67 171.65 114.34 173.3 114 175 C110.28111761 174.49287967 107.26545761 173.88391785 104 172 C104.33 174.31 104.66 176.62 105 179 C103.1953125 179.68359375 103.1953125 179.68359375 101 180 C99.4296875 178.78515625 99.4296875 178.78515625 97.875 177.0625 C95.21900685 174.58903427 95.21900685 174.58903427 91.78125 173.7734375 C90.15637013 173.88422476 88.53209173 174.00415819 86.9085083 174.1325531 C83.45382757 173.9751086 81.20189188 172.96517951 78.05761719 171.54321289 C70.81288395 168.6475261 64.43847989 168.28831779 56.703125 168.37109375 C55.38890564 168.36868179 54.07468628 168.36626984 52.72064209 168.36378479 C49.96399234 168.36095439 47.20816759 168.37535952 44.45166016 168.40307617 C40.94259821 168.43729149 37.434995 168.43107066 33.92586136 168.4124136 C30.53897434 168.39923517 27.15250182 168.41757273 23.765625 168.43359375 C22.51855774 168.42863388 21.27149048 168.42367401 19.9866333 168.41856384 C13.5501742 168.50504582 8.55770421 169.01638802 2.83270264 172.07167053 C-0.57737991 173.79899937 -4.22112389 174.14244906 -8 173.83984375 C-12.13009298 173.523215 -12.13009298 173.523215 -15.69921875 175.33203125 C-17.25894525 176.96383808 -17.25894525 176.96383808 -18.578125 178.6875 C-20 180 -20 180 -24 180 C-24.125 174.25 -24.125 174.25 -23 172 C-23.721875 172.309375 -24.44375 172.61875 -25.1875 172.9375 C-27.80307309 173.92560539 -30.25118982 174.5287754 -33 175 C-33.33 173.35 -33.66 171.7 -34 170 C-35.65 169.67 -37.3 169.34 -39 169 C-38.67 166.69 -38.34 164.38 -38 162 C-38.94166016 161.87818359 -38.94166016 161.87818359 -39.90234375 161.75390625 C-42 161 -42 161 -42.94140625 159.21484375 C-43.14636719 158.46332031 -43.35132813 157.71179688 -43.5625 156.9375 C-44.41464473 154.0053891 -45.29040093 151.28031073 -46.4375 148.4375 C-50.84455159 136.72402078 -52.82231503 124.40122583 -54 112 C-54.09023437 111.1224707 -54.18046875 110.24494141 -54.2734375 109.34082031 C-55.6827812 95.37593836 -56.20579601 81.46368157 -56.25 67.4375 C-56.25517639 66.69367065 -56.26035278 65.94984131 -56.26568604 65.18347168 C-56.31053916 57.03012104 -56.04264934 48.98910485 -55.125 40.8828125 C-55.01191498 39.86259254 -55.01191498 39.86259254 -54.89654541 38.82176208 C-53.53965107 28.00674676 -49.95124435 16.45758854 -41.109375 9.515625 C-31.56282445 3.50483391 -19.57914158 2.78239379 -8.59765625 1.64575195 C-5.57071899 1.33103867 -2.89894239 0.96631413 0 0 Z " fill="#F9D6B7" transform="translate(214,240)"/>
<path d="M0 0 C0.33 0.66 0.66 1.32 1 2 C-3.455 2.495 -3.455 2.495 -8 3 C-4.98211972 29.14103557 -4.98211972 29.14103557 8.4140625 51.140625 C10 53 10 53 10.9609375 55.046875 C13.6772827 60.15278703 19.40069751 61.55909396 24.578125 63.20703125 C34.74621602 65.56333545 47.5537008 64.86627534 57 60 C58.01002071 59.01012215 59.00835777 58.0082885 60 57 C62.07190547 55.19010592 64.16336447 53.40482696 66.2578125 51.62109375 C68.09545907 50.1008801 68.09545907 50.1008801 69 48 C69.66 48 70.32 48 71 48 C71 47.34 71 46.68 71 46 C71.66 46 72.32 46 73 46 C73.26683594 45.18144531 73.53367187 44.36289062 73.80859375 43.51953125 C75.15362045 39.54619009 76.59325625 35.61620775 78.0625 31.6875 C78.4656543 30.59598633 78.4656543 30.59598633 78.87695312 29.48242188 C80.88158017 24.11841983 80.88158017 24.11841983 82 23 C82.56344744 20.14772981 83.08134945 17.30368392 83.5625 14.4375 C83.70107422 13.63119141 83.83964844 12.82488281 83.98242188 11.99414062 C84.32517763 9.99670189 84.66304388 7.99842528 85 6 C83.68 5.34 82.36 4.68 81 4 C83.39706699 4.28342679 85.79231083 4.57643688 88.1875 4.875 C88.86103516 4.95363281 89.53457031 5.03226563 90.22851562 5.11328125 C94.12881105 5.60795286 97.3950863 6.47097245 101 8 C101.12866686 19.4962816 100.78132704 30.9315225 100.25921631 42.41455078 C100.02334964 47.6171323 99.80010444 52.82024727 99.578125 58.0234375 C99.5074733 59.67856354 99.5074733 59.67856354 99.43539429 61.36712646 C98.83779869 75.57527453 98.35701264 89.78755694 97.875 104 C97.83070862 105.30362488 97.78641724 106.60724976 97.74078369 107.95037842 C97.49147853 115.30017337 97.24436996 122.65003931 97 130 C85.78131908 133.07683117 74.66898598 135.83105282 63.1875 137.75 C61.98802734 137.95753906 60.78855469 138.16507813 59.55273438 138.37890625 C56.36986806 138.92798169 53.18566366 139.46743023 50 140 C48.96536621 140.18119385 47.93073242 140.3623877 46.86474609 140.54907227 C37.41085628 142.03716963 28.34185642 140.05032403 19.0625 138.3125 C18.332659 138.17849792 17.60281799 138.04449585 16.8508606 137.90643311 C5.71969716 135.85789905 -5.20269558 133.43205457 -16 130 C-16.08040527 129.3702124 -16.16081055 128.7404248 -16.24365234 128.09155273 C-16.61523041 125.20612447 -16.99504931 122.32183721 -17.375 119.4375 C-17.50132812 118.44685547 -17.62765625 117.45621094 -17.7578125 116.43554688 C-18.46607213 111.10589318 -19.51488502 106.17375422 -21 101 C-22.22273682 93.77717643 -22.23791328 86.42977207 -22.4375 79.125 C-22.73197197 69.62016838 -23.22756602 60.16518721 -24 50.6875 C-25.20604892 35.80696831 -25.62928023 20.92071715 -26 6 C-27.32 5.67 -28.64 5.34 -30 5 C-21.77708829 3.21387573 -13.80877316 1.693946 -5.390625 1.2109375 C-2.85445304 1.08016242 -2.85445304 1.08016242 0 0 Z " fill="#FEFEFD" transform="translate(214,240)"/>
<path d="M0 0 C5.46681348 4.20714109 10.08993941 8.80964414 14.40625 14.18359375 C14.90125 12.69859375 14.90125 12.69859375 15.40625 11.18359375 C13.92125 10.68859375 13.92125 10.68859375 12.40625 10.18359375 C11.67578125 8.1171875 11.67578125 8.1171875 11.21875 5.62109375 C10.98091797 4.38166016 10.98091797 4.38166016 10.73828125 3.1171875 C10.57392578 2.16005859 10.57392578 2.16005859 10.40625 1.18359375 C19.45781749 9.10699486 21.94756974 26.91282348 22.91015625 38.42578125 C23.7684615 51.45917075 23.7684615 51.45917075 22.40625 54.18359375 C21.74625 54.18359375 21.08625 54.18359375 20.40625 54.18359375 C20.138125 55.00859375 19.87 55.83359375 19.59375 56.68359375 C18.28100078 60.55274936 16.85523716 64.36353669 15.40625 68.18359375 C14.74625 68.18359375 14.08625 68.18359375 13.40625 68.18359375 C13.23609375 69.15039062 13.0659375 70.1171875 12.890625 71.11328125 C9.2630991 90.97257855 0.62875213 104.27127158 -15.96875 116.05859375 C-22.82975871 120.79545116 -28.2480632 120.94393832 -36.59375 120.18359375 C-43.63106408 118.06157289 -48.80152936 112.53323 -54.015625 107.5859375 C-56.53557896 105.16416641 -56.53557896 105.16416641 -59.23046875 103.14453125 C-66.4016537 97.19422572 -68.65494096 88.4182492 -70.734375 79.69921875 C-72.09216077 74.14464061 -73.90273913 69.43997714 -76.65625 64.43359375 C-79.51389406 58.73221145 -80.53797016 54.50265317 -80.59375 48.18359375 C-80.65423331 46.5989309 -80.71550978 45.01429822 -80.77734375 43.4296875 C-80.82354605 41.66023773 -80.86647268 39.89069962 -80.90625 38.12109375 C-80.93638184 37.28191406 -80.96651367 36.44273438 -80.99755859 35.578125 C-81.05331053 29.25461687 -79.53424959 24.74108969 -76.59375 19.18359375 C-76.14773437 18.27609375 -75.70171875 17.36859375 -75.2421875 16.43359375 C-67.49662733 2.74818682 -54.1976297 -4.95675345 -39.59375 -9.81640625 C-25.60457235 -13.04467802 -11.54250532 -8.08323038 0 0 Z " fill="#C0C995" transform="translate(286.59375,87.81640625)"/>
<path d="M0 0 C1.55932694 0.21227812 3.12225372 0.39950741 4.6875 0.5625 C11.40509511 1.88794478 15.89356023 5.62251935 20 11 C21.44225623 14.441925 22.44033667 17.74225442 23.28125 21.375 C23.5184375 22.24125 23.755625 23.1075 24 24 C24.66 24.33 25.32 24.66 26 25 C25.67 26.32 25.34 27.64 25 29 C24.44054687 28.31035156 23.88109375 27.62070313 23.3046875 26.91015625 C12.82920051 14.63261603 -0.62274238 5.71291546 -17 3.76171875 C-31.28972705 3.23143591 -44.93476921 10.60319581 -55.51953125 19.60546875 C-61.63846508 25.51240802 -68.88580171 35.92186548 -69.05004883 44.66381836 C-69.01935303 45.71190674 -68.98865723 46.75999512 -68.95703125 47.83984375 C-68.92512695 49.5578418 -68.92512695 49.5578418 -68.89257812 51.31054688 C-68.83927256 53.72489872 -68.77420196 56.13902 -68.69726562 58.55273438 C-68.67986328 59.69935547 -68.66246094 60.84597656 -68.64453125 62.02734375 C-68.60356323 63.60116821 -68.60356323 63.60116821 -68.56176758 65.20678711 C-69.1096158 68.69867097 -70.4214721 69.68972925 -73 72 C-74.4901165 80.31883933 -72.73977567 86.84309898 -68.1875 93.75 C-66.11202019 96.18970948 -66.11202019 96.18970948 -63.015625 97.1953125 C-58.95998481 99.62239251 -58.73237255 101.61848706 -57.5625 106.125 C-55.35677055 113.80492373 -52.06657175 119.65317547 -45.79296875 124.81640625 C-42.94153734 128.28906455 -43.68203673 131.42174959 -44.03833008 135.72070312 C-45.18159299 146.1862443 -48.90553477 157.96133459 -57 165 C-58.32 165 -59.64 165 -61 165 C-61.33 163.02 -61.66 161.04 -62 159 C-62.99 158.67 -63.98 158.34 -65 158 C-65 157.01 -65 156.02 -65 155 C-66.32 155 -67.64 155 -69 155 C-69.33 156.32 -69.66 157.64 -70 159 C-71.65 159.33 -73.3 159.66 -75 160 C-75 160.66 -75 161.32 -75 162 C-90.61324271 162.45475464 -100.80031707 160.79978862 -114 152 C-114 151.34 -114 150.68 -114 150 C-114.66 150 -115.32 150 -116 150 C-120.71098704 143.71868394 -121.24568809 139.6163308 -121 132 C-120.67 131.34 -120.34 130.68 -120 130 C-121.134375 130.0825 -122.26875 130.165 -123.4375 130.25 C-129.72554672 130.27237739 -134.87202298 127.41865134 -140 124 C-140 123.34 -140 122.68 -140 122 C-140.66 122 -141.32 122 -142 122 C-146.99268232 113.78623231 -147.82842185 106.63880012 -147 97 C-145.55759109 91.70878711 -143.25322741 86.43621919 -140 82 C-139.34 82 -138.68 82 -138 82 C-137.67 81.01 -137.34 80.02 -137 79 C-136.34 79 -135.68 79 -135 79 C-135 78.34 -135 77.68 -135 77 C-125.21022052 71.76183228 -116.39022119 69.62216215 -105.3125 71.6875 C-99.17882745 72.26614835 -94.72102803 69.84117018 -90 66.0625 C-82.0401149 58.64888153 -76.97942101 48.53820601 -72 39 C-70.70666 36.53401064 -69.41206907 34.06868348 -68.11669922 31.60375977 C-67.21750048 29.89065606 -66.32062452 28.1763308 -65.42626953 26.46069336 C-65.01231934 25.66928955 -64.59836914 24.87788574 -64.171875 24.0625 C-63.8015918 23.35222656 -63.43130859 22.64195313 -63.04980469 21.91015625 C-62.12180282 20.22162448 -61.06876305 18.60314458 -60 17 C-59.34 17 -58.68 17 -58 17 C-57.773125 16.443125 -57.54625 15.88625 -57.3125 15.3125 C-55.62449964 12.33840412 -53.53323483 10.27991135 -51 8 C-50.34 8 -49.68 8 -49 8 C-49 7.34 -49 6.68 -49 6 C-46.98828125 4.5625 -46.98828125 4.5625 -44.3125 3 C-43.44238281 2.484375 -42.57226562 1.96875 -41.67578125 1.4375 C-28.8496671 -5.45302556 -13.34197961 -5.4118957 0 0 Z " fill="#BD7642" transform="translate(276,74)"/>
<path d="M0 0 C1.05574219 0.6290625 2.11148437 1.258125 3.19921875 1.90625 C8.83562551 4.722594 14.61037865 4.99472104 20.8125 5.5 C41.36207291 7.19161702 41.36207291 7.19161702 49 14 C49.88842126 16.44751348 50.55334668 18.67050059 51.125 21.1875 C51.29257812 21.86006836 51.46015625 22.53263672 51.6328125 23.22558594 C52.325953 26.02657752 52.96569837 28.83549709 53.5546875 31.66015625 C54.29819382 35.7201857 54.29819382 35.7201857 57.1875 38.4375 C59 40 59 40 59.24609375 41.890625 C58.8163242 50.04238295 54.29923374 55.05259215 48.5 60.375 C45.54036034 62.80071803 42.75160891 64.08497344 39 65 C39.350625 65.804375 39.70125 66.60875 40.0625 67.4375 C42.03971533 74.95091826 40.00309311 82.36475695 36.3125 89.0625 C29.99612039 97.08600924 21.53968637 99.52695703 11.6875 100.875 C2.40928523 101.51986883 -6.27077228 99.04080069 -14 94 C-14.99 93.67 -15.98 93.34 -17 93 C-17.928125 93.99 -17.928125 93.99 -18.875 95 C-21 97 -21 97 -23 97 C-26.49485901 84.90778784 -28.87078031 71.62631456 -28 59 C-27.34 58.01 -26.68 57.02 -26 56 C-25.34 56 -24.68 56 -24 56 C-23.5978125 54.7934375 -23.5978125 54.7934375 -23.1875 53.5625 C-22.5996875 52.2940625 -22.5996875 52.2940625 -22 51 C-20.515 50.505 -20.515 50.505 -19 50 C-17.19213137 46.32422283 -16.12984114 42.35001103 -14.9375 38.4375 C-14.59589844 37.32246094 -14.25429688 36.20742187 -13.90234375 35.05859375 C-12.98203215 32.14442317 -12.98203215 32.14442317 -12.58203125 29.66796875 C-12.29392578 28.84232422 -12.29392578 28.84232422 -12 28 C-10.9275 27.62875 -9.855 27.2575 -8.75 26.875 C-4.33466363 25.1452806 -2.78128872 22.33321437 -0.8671875 18.1171875 C0.79222055 12.15228829 0.36847899 6.14131652 0 0 Z " fill="#BE7642" transform="translate(310,142)"/>
<path d="M0 0 C5.46681348 4.20714109 10.08993941 8.80964414 14.40625 14.18359375 C14.90125 12.69859375 14.90125 12.69859375 15.40625 11.18359375 C13.92125 10.68859375 13.92125 10.68859375 12.40625 10.18359375 C11.67578125 8.1171875 11.67578125 8.1171875 11.21875 5.62109375 C10.98091797 4.38166016 10.98091797 4.38166016 10.73828125 3.1171875 C10.57392578 2.16005859 10.57392578 2.16005859 10.40625 1.18359375 C19.39446424 9.05153781 21.96959281 26.81437774 22.875 38.2734375 C23.14704673 42.5752807 23.30545372 46.87455278 23.40625 51.18359375 C22.74625 50.19359375 22.08625 49.20359375 21.40625 48.18359375 C21.01953125 49.17359375 20.6328125 50.16359375 20.234375 51.18359375 C17.55058181 58.00353509 14.84617075 64.70066618 11.40625 71.18359375 C11.07625 71.18359375 10.74625 71.18359375 10.40625 71.18359375 C10.30828125 70.50554687 10.2103125 69.8275 10.109375 69.12890625 C7.98480217 55.90527193 3.07598505 45.19009236 -7.5078125 36.59375 C-14.01462992 32.19494646 -22.74839348 26.99357977 -30.78125 27.30859375 C-43.7765928 30.29113144 -55.10721875 36.33795925 -62.65625 47.62109375 C-66.64337594 54.60598435 -69.72398127 62.13823296 -70.59375 70.18359375 C-73.69344399 68.63374675 -74.32391624 65.62002465 -75.59375 62.55859375 C-76.3671875 60.74488281 -76.3671875 60.74488281 -77.15625 58.89453125 C-79.89341691 51.82847538 -80.9574199 45.82044933 -80.96875 38.30859375 C-80.99324219 37.46167969 -81.01773438 36.61476562 -81.04296875 35.7421875 C-81.07225956 29.36655558 -79.56120779 24.78507144 -76.59375 19.18359375 C-76.14773437 18.27609375 -75.70171875 17.36859375 -75.2421875 16.43359375 C-67.49662733 2.74818682 -54.1976297 -4.95675345 -39.59375 -9.81640625 C-25.60457235 -13.04467802 -11.54250532 -8.08323038 0 0 Z " fill="#FDFDFA" transform="translate(286.59375,87.81640625)"/>
<path d="M0 0 C1.0625 1.875 1.0625 1.875 2 4 C1.67 4.66 1.34 5.32 1 6 C1.05804772 7.83430805 1.14610765 9.66771674 1.25 11.5 C1.31191305 17.93121757 -0.23147469 22.77365043 -4 28 C-7.02148035 30.7942552 -7.6756057 31 -12 31 C-12.0825 32.299375 -12.165 33.59875 -12.25 34.9375 C-12.81823799 40.1587012 -14.64543849 44.35307295 -17 49 C-17.33386719 49.70640625 -17.66773438 50.4128125 -18.01171875 51.140625 C-19.29467055 53.55439994 -21.0420736 55.09965967 -23 57 C-25.74312979 59.85447454 -26.92358346 61.34816691 -27.390625 65.33203125 C-27.34421875 66.48058594 -27.2978125 67.62914062 -27.25 68.8125 C-27.21390625 69.97394531 -27.1778125 71.13539063 -27.140625 72.33203125 C-27.09421875 73.21246094 -27.0478125 74.09289062 -27 75 C-27.66 74.34 -28.32 73.68 -29 73 C-29.48210937 73.3609375 -29.96421875 73.721875 -30.4609375 74.09375 C-31.40839844 74.78984375 -31.40839844 74.78984375 -32.375 75.5 C-33.00148438 75.9640625 -33.62796875 76.428125 -34.2734375 76.90625 C-36 78 -36 78 -38 78 C-38 78.66 -38 79.32 -38 80 C-39.32 80.33 -40.64 80.66 -42 81 C-42 81.66 -42 82.32 -42 83 C-49.52647022 85.50882341 -55.14296241 86.13733829 -62.4375 82.6875 C-66.85232843 80.44301471 -66.85232843 80.44301471 -68 77 C-70.01508358 76.26676204 -70.01508358 76.26676204 -72 76 C-72 75.34 -72 74.68 -72 74 C-72.66 74 -73.32 74 -74 74 C-74 73.34 -74 72.68 -74 72 C-74.99 71.67 -75.98 71.34 -77 71 C-77.99 71.99 -77.99 71.99 -79 73 C-78.91878906 72.28714844 -78.83757812 71.57429688 -78.75390625 70.83984375 C-78.26316335 65.11993697 -78.26316335 65.11993697 -80.3828125 59.9921875 C-81.60667931 58.85309069 -82.855386 57.74021865 -84.125 56.65234375 C-90.12979622 51.36061708 -91.94788427 44.42942069 -93.71484375 36.85546875 C-95.40946736 33.09021082 -97.30120592 32.63347759 -101 31 C-102.86328125 29.09765625 -102.86328125 29.09765625 -104.3125 27.0625 C-104.80363281 26.39347656 -105.29476562 25.72445312 -105.80078125 25.03515625 C-108.09630259 21.13949951 -108.18296694 17.46887064 -108.25 13 C-108.27578125 11.96875 -108.3015625 10.9375 -108.328125 9.875 C-107.96014298 6.65077655 -107.26588679 5.28788569 -105 3 C-104.34 3 -103.68 3 -103 3 C-102.75765625 3.72445312 -102.5153125 4.44890625 -102.265625 5.1953125 C-101.93046875 6.16210938 -101.5953125 7.12890625 -101.25 8.125 C-100.92515625 9.07632813 -100.6003125 10.02765625 -100.265625 11.0078125 C-99.0868045 14.09328465 -99.0868045 14.09328465 -96.984375 16.84375 C-94.59033685 20.65159021 -93.84909842 24.01330536 -93 28.375 C-91.68143072 34.48404545 -90.29164625 39.61366977 -87 45 C-86.64292969 45.58652344 -86.28585938 46.17304688 -85.91796875 46.77734375 C-80.04711941 55.75051482 -69.80160584 63.78036649 -60 68 C-52.55444085 69.23052355 -46.38380306 68.82042985 -39.9375 64.75 C-38.26118064 63.54119035 -36.61382506 62.29106005 -35 61 C-34.1440625 60.33871094 -33.288125 59.67742187 -32.40625 58.99609375 C-19.04944892 47.91602012 -13.78267698 33.4202569 -10 17 C-9.34 17 -8.68 17 -8 17 C-7.9175 16.175 -7.835 15.35 -7.75 14.5 C-6.83552731 10.23246079 -5.07776822 6.80763106 -3 3 C-2.34 3 -1.68 3 -1 3 C-0.67 2.01 -0.34 1.02 0 0 Z " fill="#F8D4B3" transform="translate(310,139)"/>
<path d="M0 0 C1.55932694 0.21227812 3.12225372 0.39950741 4.6875 0.5625 C11.40509511 1.88794478 15.89356023 5.62251935 20 11 C21.44225623 14.441925 22.44033667 17.74225442 23.28125 21.375 C23.5184375 22.24125 23.755625 23.1075 24 24 C24.66 24.33 25.32 24.66 26 25 C25.67 26.32 25.34 27.64 25 29 C24.44054687 28.31035156 23.88109375 27.62070313 23.3046875 26.91015625 C12.82920051 14.63261603 -0.62274238 5.71291546 -17 3.76171875 C-31.28972705 3.23143591 -44.93476921 10.60319581 -55.51953125 19.60546875 C-60.32548833 24.24492023 -63.33437172 29.55211831 -66.25 35.5 C-68 39 -68 39 -70 40 C-70.33 41.155 -70.66 42.31 -71 43.5 C-71.33 44.655 -71.66 45.81 -72 47 C-72.99 47.495 -72.99 47.495 -74 48 C-74.4125 48.825 -74.825 49.65 -75.25 50.5 C-77.4475113 54.89502261 -79.92926351 59.15088741 -83 63 C-83.66 63 -84.32 63 -85 63 C-84.67 63.99 -84.34 64.98 -84 66 C-84.598125 66.061875 -85.19625 66.12375 -85.8125 66.1875 C-88.24093209 66.80623121 -88.24093209 66.80623121 -89.1875 69.375 C-91.4772734 72.69122354 -93.18902819 73.45390777 -96.99609375 74.5703125 C-105.49639589 75.78622048 -114.6045068 74.5336649 -123 73 C-119.6745222 70.7830148 -118.61926325 70.75305601 -114.75 70.8125 C-113.76902344 70.82539063 -112.78804687 70.83828125 -111.77734375 70.8515625 C-109 71 -109 71 -105.3125 71.6875 C-99.17882745 72.26614835 -94.72102803 69.84117018 -90 66.0625 C-82.0401149 58.64888153 -76.97942101 48.53820601 -72 39 C-70.70666 36.53401064 -69.41206907 34.06868348 -68.11669922 31.60375977 C-67.21750048 29.89065606 -66.32062452 28.1763308 -65.42626953 26.46069336 C-65.01231934 25.66928955 -64.59836914 24.87788574 -64.171875 24.0625 C-63.8015918 23.35222656 -63.43130859 22.64195313 -63.04980469 21.91015625 C-62.12180282 20.22162448 -61.06876305 18.60314458 -60 17 C-59.34 17 -58.68 17 -58 17 C-57.773125 16.443125 -57.54625 15.88625 -57.3125 15.3125 C-55.62449964 12.33840412 -53.53323483 10.27991135 -51 8 C-50.34 8 -49.68 8 -49 8 C-49 7.34 -49 6.68 -49 6 C-46.98828125 4.5625 -46.98828125 4.5625 -44.3125 3 C-43.44238281 2.484375 -42.57226562 1.96875 -41.67578125 1.4375 C-28.8496671 -5.45302556 -13.34197961 -5.4118957 0 0 Z " fill="#BD753F" transform="translate(276,74)"/>
<path d="M0 0 C1.15340497 2.92195926 1.14981713 5.26101543 0.9375 8.375 C0.2775 8.375 -0.3825 8.375 -1.0625 8.375 C-1.000625 9.2825 -0.93875 10.19 -0.875 11.125 C-1.07936856 14.66738832 -1.58903696 15.90153696 -4.0625 18.375 C-4.7225 18.375 -5.3825 18.375 -6.0625 18.375 C-6.5575 19.86 -6.5575 19.86 -7.0625 21.375 C-12.73966173 26.26672916 -18.79209722 27.10897822 -26.0859375 26.79296875 C-30.30364792 26.20071807 -32.16601888 25.51975093 -35.0625 22.375 C-35.4375 19.125 -35.4375 19.125 -35.0625 16.375 C-35.7225 16.375 -36.3825 16.375 -37.0625 16.375 C-37.0625 15.385 -37.0625 14.395 -37.0625 13.375 C-37.7225 12.715 -38.3825 12.055 -39.0625 11.375 C-38.423125 10.75625 -37.78375 10.1375 -37.125 9.5 C-35.02366416 7.54902388 -35.02366416 7.54902388 -34.0625 5.375 C-33.0725 5.705 -32.0825 6.035 -31.0625 6.375 C-31.0625 7.035 -31.0625 7.695 -31.0625 8.375 C-25.1225 8.375 -19.1825 8.375 -13.0625 8.375 C-13.0625 7.385 -13.0625 6.395 -13.0625 5.375 C-15.3725 5.045 -17.6825 4.715 -20.0625 4.375 C-20.0625 3.715 -20.0625 3.055 -20.0625 2.375 C-24.6825 1.715 -29.3025 1.055 -34.0625 0.375 C-34.0625 0.045 -34.0625 -0.285 -34.0625 -0.625 C-30.41681461 -0.7950084 -26.77093272 -0.96038803 -23.125 -1.125 C-22.10341797 -1.17269531 -21.08183594 -1.22039062 -20.02929688 -1.26953125 C-2.60075854 -2.04908249 -2.60075854 -2.04908249 0 0 Z " fill="#F4D4B4" transform="translate(279.0625,179.625)"/>
<path d="M0 0 C7.61546088 3.37373106 12.67863971 11.7908675 15.9765625 19.19140625 C17.99279527 24.60885412 18.27418186 29.24218087 18 35 C15.57869669 32.57869669 15.47159496 31.19888623 14.875 27.875 C14.70742188 26.96492188 14.53984375 26.05484375 14.3671875 25.1171875 C14.24601562 24.41851562 14.12484375 23.71984375 14 23 C13.34 25.97 12.68 28.94 12 32 C11.67 31.01 11.34 30.02 11 29 C7.89525766 29.30694459 4.79133414 29.621514 1.6875 29.9375 C0.80642578 30.02451172 -0.07464844 30.11152344 -0.98242188 30.20117188 C-1.82998047 30.28818359 -2.67753906 30.37519531 -3.55078125 30.46484375 C-4.72120972 30.58267212 -4.72120972 30.58267212 -5.9152832 30.70288086 C-8.18882001 30.96337997 -8.18882001 30.96337997 -11 32 C-11 32.66 -11 33.32 -11 34 C-6.38 34.99 -1.76 35.98 3 37 C3 37.33 3 37.66 3 38 C1.41676312 38.027193 -0.16661062 38.04648306 -1.75 38.0625 C-2.63171875 38.07410156 -3.5134375 38.08570313 -4.421875 38.09765625 C-6.82586518 38.00659602 -8.73866574 37.80587506 -11 37 C-14.4076893 33.30022305 -15.87515043 30.68546914 -16.25 25.625 C-15.97771511 21.67686913 -15.51541547 20.01849856 -13 17 C-7.89001936 13.38562345 -3.00218284 13.67972542 3 14 C2.814375 13.071875 2.62875 12.14375 2.4375 11.1875 C2 8 2 8 3 5 C1.62750037 2.32323453 1.62750037 2.32323453 0 0 Z " fill="#F4D3B2" transform="translate(279,125)"/>
<path d="M0 0 C0 0.66 0 1.32 0 2 C0.66 2 1.32 2 2 2 C4.10188936 5.41557022 4.4871351 8.02173 4 12 C2 14.875 2 14.875 0 17 C-1.32 16.67 -2.64 16.34 -4 16 C-3.67 15.01 -3.34 14.02 -3 13 C-4.48113281 13.01740234 -4.48113281 13.01740234 -5.9921875 13.03515625 C-7.27351563 13.04417969 -8.55484375 13.05320313 -9.875 13.0625 C-11.15117187 13.07410156 -12.42734375 13.08570313 -13.7421875 13.09765625 C-17 13 -17 13 -19 12 C-19.33 13.32 -19.66 14.64 -20 16 C-19.34 16 -18.68 16 -18 16 C-17.67 16.66 -17.34 17.32 -17 18 C-14.942506 18.46777038 -14.942506 18.46777038 -12.5625 18.625 C-11.75941406 18.69976562 -10.95632812 18.77453125 -10.12890625 18.8515625 C-8.75505053 18.94735428 -7.3771912 19 -6 19 C-5.67 18.34 -5.34 17.68 -5 17 C-4.01 17.66 -3.02 18.32 -2 19 C-6.5763588 21.64669599 -10.83596701 21.53027195 -16 21 C-20.29882849 19.43678964 -22.59513721 17.85737252 -25 14 C-25.66391339 10.59744386 -25.59729664 7.41233359 -25 4 C-18.10068356 -5.19908859 -9.58670558 -4.10858811 0 0 Z " fill="#F2D5B3" transform="translate(248,142)"/>
<path d="M0 0 C0.33 0 0.66 0 1 0 C1.495 6.435 1.495 6.435 2 13 C1.34 12.34 0.68 11.68 0 11 C-0.48210937 11.3609375 -0.96421875 11.721875 -1.4609375 12.09375 C-2.09257812 12.5578125 -2.72421875 13.021875 -3.375 13.5 C-4.00148438 13.9640625 -4.62796875 14.428125 -5.2734375 14.90625 C-7 16 -7 16 -9 16 C-9 16.66 -9 17.32 -9 18 C-10.32 18.33 -11.64 18.66 -13 19 C-13 19.66 -13 20.32 -13 21 C-20.52647022 23.50882341 -26.14296241 24.13733829 -33.4375 20.6875 C-37.85232843 18.44301471 -37.85232843 18.44301471 -39 15 C-41.01508358 14.26676204 -41.01508358 14.26676204 -43 14 C-43 13.34 -43 12.68 -43 12 C-43.66 12 -44.32 12 -45 12 C-45 11.34 -45 10.68 -45 10 C-45.99 9.67 -46.98 9.34 -48 9 C-48.66 9.66 -49.32 10.32 -50 11 C-49.67 8.03 -49.34 5.06 -49 2 C-45 3 -45 3 -42.875 5.25 C-37.289067 10.59306635 -31.37183206 13.29232902 -23.625 13.8125 C-15.40398706 13.5202839 -8.91959843 9.03593355 -3.2890625 3.23828125 C-2 2 -2 2 0 2 C0 1.34 0 0.68 0 0 Z " fill="#EFC09F" transform="translate(281,201)"/>
<path d="M0 0 C11.67811777 -0.53991298 25.20380571 -0.78726198 34.75 6.875 C39.23863946 11.43895221 40.85583132 16.21719129 42.28125 22.375 C42.5184375 23.24125 42.755625 24.1075 43 25 C43.66 25.33 44.32 25.66 45 26 C44.67 27.32 44.34 28.64 44 30 C43.44054687 29.31035156 42.88109375 28.62070313 42.3046875 27.91015625 C31.82920051 15.63261603 18.37725762 6.71291546 2 4.76171875 C-4.09604947 4.53549816 -9.23395092 6.08970085 -14.984375 8.02734375 C-17.65552448 8.88889326 -20.23956426 9.51436779 -23 10 C-22.67 9.01 -22.34 8.02 -22 7 C-19.36 6.67 -16.72 6.34 -14 6 C-14 5.34 -14 4.68 -14 4 C-9.07262981 2.02905192 -5.21979128 1.8200072 0 2 C0 1.34 0 0.68 0 0 Z " fill="#B68866" transform="translate(257,73)"/>
<path d="M0 0 C0 0.99 0 1.98 0 3 C0.99 3.33 1.98 3.66 3 4 C3.6875 6.0625 3.6875 6.0625 4 8 C2 9 2 9 -2 9 C-1.505 12.465 -1.505 12.465 -1 16 C-2.8046875 16.68359375 -2.8046875 16.68359375 -5 17 C-6.5703125 15.78515625 -6.5703125 15.78515625 -8.125 14.0625 C-10.78099315 11.58903427 -10.78099315 11.58903427 -14.21875 10.7734375 C-15.85332199 10.88488559 -17.48729545 11.00540724 -19.12060547 11.1340332 C-22.49100806 10.97714402 -24.45343233 9.99461117 -27.4765625 8.51953125 C-36.98797996 4.70865643 -46.65957318 5.49892684 -56.75 5.75 C-60.55716942 5.81706396 -64.36446798 5.87030555 -68.171875 5.921875 C-69.54647888 5.94417175 -69.54647888 5.94417175 -70.94885254 5.96691895 C-79.33315385 6.07440519 -87.64349759 5.64751083 -96 5 C-96 4.67 -96 4.34 -96 4 C-94.74237099 3.99453156 -94.74237099 3.99453156 -93.45933533 3.98895264 C-85.44597783 3.95063114 -77.43300928 3.89329609 -69.41992855 3.81609726 C-65.30313265 3.77706613 -61.18653647 3.74466601 -57.06958008 3.72900391 C-39.71585278 3.65855121 -22.97977111 3.40793329 -5.92797852 -0.24902344 C-2 -1 -2 -1 0 0 Z " fill="#F8D4B5" transform="translate(320,403)"/>
<path d="M0 0 C3.97647558 0.19641865 7.87651517 0.61974211 11.8125 1.19140625 C12.83827148 1.33449219 12.83827148 1.33449219 13.88476562 1.48046875 C15.54877707 1.71319762 17.21198053 1.95169173 18.875 2.19140625 C18.545 3.18140625 18.215 4.17140625 17.875 5.19140625 C20.185 5.52140625 22.495 5.85140625 24.875 6.19140625 C24.875 7.18140625 24.875 8.17140625 24.875 9.19140625 C21.93695004 9.27227001 19.00111925 9.33183455 16.0625 9.37890625 C14.81243164 9.41661133 14.81243164 9.41661133 13.53710938 9.45507812 C12.33344727 9.46958008 12.33344727 9.46958008 11.10546875 9.484375 C9.99788208 9.50794067 9.99788208 9.50794067 8.86791992 9.53198242 C6.35269478 9.10214792 5.48058484 8.11677563 3.875 6.19140625 C3.441875 7.39796875 3.441875 7.39796875 3 8.62890625 C1.875 11.19140625 1.875 11.19140625 -0.125 12.19140625 C0.865 13.67640625 0.865 13.67640625 1.875 15.19140625 C1.545 15.85140625 1.215 16.51140625 0.875 17.19140625 C1.535 17.19140625 2.195 17.19140625 2.875 17.19140625 C3.205 18.18140625 3.535 19.17140625 3.875 20.19140625 C3.215 21.18140625 2.555 22.17140625 1.875 23.19140625 C-5.86943369 13.63187092 -5.86943369 13.63187092 -6.8125 8.31640625 C-5.05095221 0.30937082 -5.05095221 0.30937082 0 0 Z " fill="#F7D5B4" transform="translate(241.125,178.80859375)"/>
<path d="M0 0 C0.495 0.99 0.495 0.99 1 2 C0.04060332 3.69036558 -0.96642853 5.35394174 -2 7 C-2.28875 7.763125 -2.5775 8.52625 -2.875 9.3125 C-4.20227378 12.48320959 -5.97385063 15.18377415 -7.83203125 18.06640625 C-9.17209162 20.28490084 -10.05208262 22.59374819 -11 25 C-11.99 25.495 -11.99 25.495 -13 26 C-13.33 27.155 -13.66 28.31 -14 29.5 C-14.33 30.655 -14.66 31.81 -15 33 C-15.99 33.495 -15.99 33.495 -17 34 C-17.4125 34.825 -17.825 35.65 -18.25 36.5 C-20.4475113 40.89502261 -22.92926351 45.15088741 -26 49 C-26.66 49 -27.32 49 -28 49 C-27.67 49.99 -27.34 50.98 -27 52 C-27.598125 52.061875 -28.19625 52.12375 -28.8125 52.1875 C-31.24093209 52.80623121 -31.24093209 52.80623121 -32.1875 55.375 C-34.4772734 58.69122354 -36.18902819 59.45390777 -39.99609375 60.5703125 C-48.49639589 61.78622048 -57.6045068 60.5336649 -66 59 C-62.6745222 56.7830148 -61.61926325 56.75305601 -57.75 56.8125 C-56.76902344 56.82539063 -55.78804687 56.83828125 -54.77734375 56.8515625 C-52 57 -52 57 -48.3125 57.6875 C-42.17882745 58.26614835 -37.72102803 55.84117018 -33 52.0625 C-25.0401149 44.64888153 -19.97942101 34.53820601 -15 25 C-13.70666 22.53401064 -12.41206907 20.06868348 -11.11669922 17.60375977 C-10.21750048 15.89065606 -9.32062452 14.1763308 -8.42626953 12.46069336 C-8.01231934 11.66928955 -7.59836914 10.87788574 -7.171875 10.0625 C-6.8015918 9.35222656 -6.43130859 8.64195313 -6.04980469 7.91015625 C-5.12180282 6.22162448 -4.06876305 4.60314458 -3 3 C-2.34 3 -1.68 3 -1 3 C-0.67 2.01 -0.34 1.02 0 0 Z " fill="#D2AF96" transform="translate(219,88)"/>
<path d="M0 0 C7.59 0 15.18 0 23 0 C23 1.65 23 3.3 23 5 C19.35610463 8.64389537 16.55506184 9.28535627 11.4375 9.4375 C6.6673028 9.26875833 3.45555148 8.45555148 0 5 C0 3.35 0 1.7 0 0 Z " fill="#291F23" transform="translate(245,189)"/>
<path d="M0 0 C2.06183633 -0.08150744 4.12461349 -0.1394194 6.1875 -0.1875 C7.33605469 -0.22230469 8.48460937 -0.25710937 9.66796875 -0.29296875 C13.32969401 0.02898834 14.98451286 0.99472631 18 3 C20.09301647 3.65148969 20.09301647 3.65148969 22.125 4 C25.22690181 4.6906121 27.05813188 5.32993134 29 8 C28.67 8.99 28.34 9.98 28 11 C26.58208592 10.54554036 25.16571954 10.08625056 23.75 9.625 C22.96109375 9.36976562 22.1721875 9.11453125 21.359375 8.8515625 C19 8 19 8 17.02734375 6.9375 C12.98345151 5.06749203 8.39176471 5.2583391 4 5 C3.25363281 4.93425781 2.50726563 4.86851563 1.73828125 4.80078125 C-4.24905734 4.47983334 -9.34059661 6.12563582 -14.984375 8.02734375 C-17.65552448 8.88889326 -20.23956426 9.51436779 -23 10 C-22.67 9.01 -22.34 8.02 -22 7 C-19.36 6.67 -16.72 6.34 -14 6 C-14 5.34 -14 4.68 -14 4 C-9.07262981 2.02905192 -5.21979128 1.8200072 0 2 C0 1.34 0 0.68 0 0 Z " fill="#BA7543" transform="translate(257,73)"/>
<path d="M0 0 C0 0.99 0 1.98 0 3 C-0.66 3 -1.32 3 -2 3 C-2 3.66 -2 4.32 -2 5 C-3.48113281 5.18755859 -3.48113281 5.18755859 -4.9921875 5.37890625 C-9.79681555 6.06545406 -14.45552831 7.26243168 -19.15625 8.45117188 C-31.37392695 11.4374628 -43.28022718 12.28408867 -55.80078125 12.1953125 C-57.37403685 12.19157175 -58.94729481 12.18872981 -60.52055359 12.18673706 C-64.61561781 12.17918407 -68.71053497 12.15960967 -72.80554199 12.1373291 C-77.00250256 12.11668865 -81.19948743 12.10769685 -85.39648438 12.09765625 C-93.59772294 12.07635387 -101.79884306 12.04232174 -110 12 C-109.34 11.01 -108.68 10.02 -108 9 C-106.89519287 9.10284302 -106.89519287 9.10284302 -105.76806641 9.20776367 C-93.97911692 10.18449239 -82.19874265 10.28416772 -70.375 10.3125 C-69.29227814 10.31545074 -68.20955627 10.31840149 -67.09402466 10.32144165 C-37.46159231 10.40106276 -37.46159231 10.40106276 -9 3 C-7.33723702 2.42606334 -5.67135481 1.8609133 -4 1.3125 C-2.8553125 0.93544922 -2.8553125 0.93544922 -1.6875 0.55078125 C-1.130625 0.36902344 -0.57375 0.18726563 0 0 Z " fill="#EBC4A4" transform="translate(334,395)"/>
<path d="M0 0 C7.61546088 3.37373106 12.67863971 11.7908675 15.9765625 19.19140625 C17.99279527 24.60885412 18.27418186 29.24218087 18 35 C14.87931892 31.87931892 15.29199726 28.02284374 14.85546875 23.75 C14.27890395 20.76169699 14.27890395 20.76169699 11.42578125 19.625 C10.22501953 19.315625 10.22501953 19.315625 9 19 C9 18.34 9 17.68 9 17 C8.21625 16.814375 7.4325 16.62875 6.625 16.4375 C4 15 4 15 2.625 11.5625 C2 8 2 8 3 5 C1.62750037 2.32323453 1.62750037 2.32323453 0 0 Z " fill="#BDC794" transform="translate(279,125)"/>
<path d="M0 0 C0.99 0.66 1.98 1.32 3 2 C3.66 1.67 4.32 1.34 5 1 C2.43688797 6.9370044 -2.6023187 11.01523804 -8.5 13.4375 C-9.325 13.623125 -10.15 13.80875 -11 14 C-10.649375 14.804375 -10.29875 15.60875 -9.9375 16.4375 C-8.2773452 22.74608823 -9.47720531 29.02495995 -12 35 C-13.28072371 37.0340906 -14.60287726 39.04402816 -16 41 C-16.66 40.67 -17.32 40.34 -18 40 C-17.34 39.34 -16.68 38.68 -16 38 C-15.60235737 36.01178687 -15.26224651 34.01055661 -15 32 C-14.01 32.33 -13.02 32.66 -12 33 C-12.165 32.360625 -12.33 31.72125 -12.5 31.0625 C-13.04802584 27.70584173 -13.03151936 24.57416699 -12.9375 21.18359375 C-12.92101637 18.9849874 -12.92101637 18.9849874 -13.54296875 16.859375 C-14 15 -14 15 -13.3125 12.8125 C-11.67618111 10.55282153 -10.63752501 10.59557016 -8 10 C-7.67 9.01 -7.34 8.02 -7 7 C-5.02043058 5.30911778 -3.02054804 3.64169528 -1 2 C-0.67 1.34 -0.34 0.68 0 0 Z " fill="#D0A180" transform="translate(360,193)"/>
<path d="M0 0 C1.49080078 0.16628906 1.49080078 0.16628906 3.01171875 0.3359375 C3.77097656 0.43132812 4.53023438 0.52671875 5.3125 0.625 C5.6425 2.935 5.9725 5.245 6.3125 7.625 C2.50719703 10.31109622 -0.02737653 11.21990938 -4.6875 10.625 C-7.0625 9.5 -7.0625 9.5 -8.6875 7.625 C-9.125 4.5625 -9.125 4.5625 -8.6875 1.625 C-5.1388865 -0.74074234 -4.1110475 -0.48365265 0 0 Z " fill="#F5D3B1" transform="translate(258.6875,163.375)"/>
<path d="M0 0 C-0.30974383 2.89094238 -1.04170446 4.04691751 -3 6.25 C-7.10104026 8.64227348 -10.35613443 8.68827309 -15 8 C-17.51225266 7.19626286 -19.63823352 6.20600842 -22 5 C-22 4.34 -22 3.68 -22 3 C-18.5541029 0.70273526 -16.76836147 0.6291713 -12.6875 0.375 C-11.57761719 0.30023438 -10.46773438 0.22546875 -9.32421875 0.1484375 C-6.21037414 0.00939391 -3.11638911 -0.02828795 0 0 Z " fill="#F5D5B6" transform="translate(290,154)"/>
<path d="M0 0 C0.66 0.66 1.32 1.32 2 2 C-3.28 1.67 -8.56 1.34 -14 1 C-14 1.66 -14 2.32 -14 3 C-16.54014145 3.07055948 -18.67513461 3.09554864 -21.125 2.375 C-21.74375 2.25125 -22.3625 2.1275 -23 2 C-23.99 2.66 -24.98 3.32 -26 4 C-30.47911241 5.52120799 -34.27276994 6.23059659 -39 6 C-34.13352483 -0.01152815 -26.05562389 -0.8508793 -18.859375 -1.78515625 C-12.47121148 -2.14077264 -6.23463324 -1.46889265 0 0 Z " fill="#D5AF95" transform="translate(271,72)"/>
<path d="M0 0 C5.28 0.33 10.56 0.66 16 1 C16.33 2.65 16.66 4.3 17 6 C16.38125 6.144375 15.7625 6.28875 15.125 6.4375 C12.96741678 6.93152225 12.96741678 6.93152225 11 8 C9.45386986 7.91348369 7.91090613 7.75997364 6.375 7.5625 C5.14910156 7.40974609 5.14910156 7.40974609 3.8984375 7.25390625 C2.95871094 7.12822266 2.95871094 7.12822266 2 7 C1.67 6.01 1.34 5.02 1 4 C0.34 4 -0.32 4 -1 4 C-0.67 2.68 -0.34 1.36 0 0 Z " fill="#F7D4B6" transform="translate(229,154)"/>
<path d="M0 0 C22.44 0 44.88 0 68 0 C67.67 1.32 67.34 2.64 67 4 C66.20827393 3.67330322 65.41654785 3.34660645 64.60083008 3.01000977 C60.08659701 1.74379631 56.04690602 1.76841578 51.38671875 1.83984375 C49.99499199 1.8476461 49.99499199 1.8476461 48.57514954 1.85560608 C45.61243713 1.87334427 42.65007761 1.90441342 39.6875 1.9375 C35.81643204 1.97452061 31.9453986 2.00483617 28.07421875 2.02734375 C26.66715164 2.03572769 26.66715164 2.03572769 25.23165894 2.04428101 C16.79278933 2.06239707 8.41246754 1.63629612 0 1 C0 0.67 0 0.34 0 0 Z " fill="#F7EDE5" transform="translate(224,407)"/>
<path d="M0 0 C0.33 0.99 0.66 1.98 1 3 C5.29 3 9.58 3 14 3 C13.67 3.66 13.34 4.32 13 5 C12.02160156 4.89558594 12.02160156 4.89558594 11.0234375 4.7890625 C5.78952347 4.33382531 5.78952347 4.33382531 1.140625 6.3359375 C-0.25926337 7.87292834 -1.63100261 9.43543156 -3 11 C-4.32 11 -5.64 11 -7 11 C-7.125 5.25 -7.125 5.25 -6 3 C-6.66 2.34 -7.32 1.68 -8 1 C-5.29120665 -0.35439668 -2.99066732 -0.06501451 0 0 Z " fill="#F5E4D5" transform="translate(197,409)"/>
<path d="M0 0 C2.7302389 -0.1083667 5.45614543 -0.18746694 8.1875 -0.25 C8.95642578 -0.28351563 9.72535156 -0.31703125 10.51757812 -0.3515625 C14.56118821 -0.4209807 16.5228395 -0.2957051 20.05078125 1.890625 C22 4 22 4 22 6 C19.26935053 5.91269147 16.5418381 5.80577876 13.8125 5.6875 C12.65911133 5.65366211 12.65911133 5.65366211 11.48242188 5.61914062 C6.92077553 5.40378393 3.68227712 4.98862171 0 2 C0 1.34 0 0.68 0 0 Z " fill="#37190E" transform="translate(226,150)"/>
<path d="M0 0 C0.33 0.66 0.66 1.32 1 2 C0.04060332 3.69036558 -0.96642853 5.35394174 -2 7 C-2.28875 7.763125 -2.5775 8.52625 -2.875 9.3125 C-4.20227378 12.48320959 -5.97385063 15.18377415 -7.83203125 18.06640625 C-9.17209162 20.28490084 -10.05208262 22.59374819 -11 25 C-11.66 25.33 -12.32 25.66 -13 26 C-13.73075648 28.3140622 -14.40138258 30.64828869 -15 33 C-15.639375 33.12375 -16.27875 33.2475 -16.9375 33.375 C-17.618125 33.58125 -18.29875 33.7875 -19 34 C-19.33 34.66 -19.66 35.32 -20 36 C-19.39538419 33.18335627 -18.5536735 30.94910103 -17.109375 28.4609375 C-16.54295288 27.47323364 -16.54295288 27.47323364 -15.96508789 26.46557617 C-15.56410889 25.77568604 -15.16312988 25.0857959 -14.75 24.375 C-11.64971041 18.96469071 -8.67344177 13.54218519 -5.97265625 7.91796875 C-5 6 -5 6 -3 3 C-2.34 3 -1.68 3 -1 3 C-0.67 2.01 -0.34 1.02 0 0 Z " fill="#D3C7BE" transform="translate(219,88)"/>
<path d="M0 0 C0.75732422 0.00644531 1.51464844 0.01289063 2.29492188 0.01953125 C3.08060547 0.03628906 3.86628906 0.05304688 4.67578125 0.0703125 C5.47306641 0.07933594 6.27035156 0.08835938 7.09179688 0.09765625 C9.05742025 0.12119665 11.022889 0.15706703 12.98828125 0.1953125 C12.17578125 2.1328125 12.17578125 2.1328125 10.98828125 4.1953125 C7.27548656 5.43291073 3.67521779 5.55140147 -0.19921875 5.7578125 C-0.94880859 5.80099609 -1.69839844 5.84417969 -2.47070312 5.88867188 C-4.3175025 5.99453935 -6.16458709 6.0954101 -8.01171875 6.1953125 C-7.69921875 4.3203125 -7.69921875 4.3203125 -7.01171875 2.1953125 C-3.96490814 0.16410543 -3.41053551 -0.05128625 0 0 Z " fill="#57331E" transform="translate(276.01171875,149.8046875)"/>
<path d="M0 0 C1.22589844 -0.00515625 2.45179688 -0.0103125 3.71484375 -0.015625 C6.79991052 0.22916443 8.48596294 0.62271344 11.0625 2.25 C6.85177669 5.73473653 2.89561423 5.68167484 -2.33203125 5.5546875 C-5.46672241 5.18811192 -7.50671868 4.2616811 -9.9375 2.25 C-6.26994001 -0.19503999 -4.36271863 -0.01831152 0 0 Z " fill="#975D69" transform="translate(255.9375,192.75)"/>
<path d="M0 0 C-0.66 0.66 -1.32 1.32 -2 2 C-1.67673447 5.59679066 -1.67673447 5.59679066 -1 9 C-2.765625 9.68359375 -2.765625 9.68359375 -5 10 C-6.921875 8.78515625 -6.921875 8.78515625 -8.75 7.0625 C-9.36359375 6.49660156 -9.9771875 5.93070312 -10.609375 5.34765625 C-11.06828125 4.90292969 -11.5271875 4.45820313 -12 4 C-11.34 3.67 -10.68 3.34 -10 3 C-9.67 2.01 -9.34 1.02 -9 0 C-5.52176885 -1.15941038 -3.54104422 -0.70820884 0 0 Z " fill="#F6E9DE" transform="translate(320,410)"/>
<path d="M0 0 C-1.09461063 2.7862816 -1.86568665 3.91103921 -4.40625 5.59375 C-7.96055433 8.89111666 -8.64862906 12.14793983 -9.8125 16.75 C-10.13637695 17.93916016 -10.13637695 17.93916016 -10.46679688 19.15234375 C-10.99403104 21.09725199 -11.49924152 23.04810736 -12 25 C-12.66 25 -13.32 25 -14 25 C-14.33 26.32 -14.66 27.64 -15 29 C-14.48024207 18.77809406 -11.49047288 8.28802767 -4 1 C-2 0 -2 0 0 0 Z " fill="#F8E8DB" transform="translate(175,250)"/>
<path d="M0 0 C3.15330554 0.60694155 5.18888867 1.6416665 7.75 3.5625 C8.67039062 4.24505859 8.67039062 4.24505859 9.609375 4.94140625 C10.29773438 5.46541016 10.29773438 5.46541016 11 6 C10.34 8.31 9.68 10.62 9 13 C6.125 12.6875 6.125 12.6875 3 12 C2.34 11.01 1.68 10.02 1 9 C1.99 8.67 2.98 8.34 4 8 C3.67 7.01 3.34 6.02 3 5 C2.34 4.67 1.68 4.34 1 4 C0.375 1.9375 0.375 1.9375 0 0 Z " fill="#F5E1D2" transform="translate(319,402)"/>
<path d="M0 0 C0.66 0.33 1.32 0.66 2 1 C0.93787671 8.45071559 -1.34124111 14.43657756 -5 21 C-5.61875 20.814375 -6.2375 20.62875 -6.875 20.4375 C-9.04160178 19.76313824 -9.04160178 19.76313824 -11 21 C-9.60101283 18.02798898 -7.95669648 15.42983013 -6.0625 12.75 C-3.26743287 8.62915531 -1.5454534 4.72221873 0 0 Z " fill="#EFD3AA" transform="translate(296,171)"/>
<path d="M0 0 C1.42119141 -0.00386719 1.42119141 -0.00386719 2.87109375 -0.0078125 C5.26390459 0.11026525 7.27586153 0.44387365 9.5625 1.125 C9.5625 2.115 9.5625 3.105 9.5625 4.125 C3.6225 4.125 -2.3175 4.125 -8.4375 4.125 C-8.4375 3.135 -8.4375 2.145 -8.4375 1.125 C-5.36792902 0.10180967 -3.21309677 -0.00871939 0 0 Z " fill="#F6E9DB" transform="translate(256.4375,183.875)"/>
<path d="M0 0 C2.5625 0.1875 2.5625 0.1875 4.5625 2.1875 C4.25 4.5625 4.25 4.5625 3.5625 7.1875 C3.376875 7.950625 3.19125 8.71375 3 9.5 C2.7834375 10.3353125 2.7834375 10.3353125 2.5625 11.1875 C0.09449953 10.03576645 -1.48533565 9.13966435 -3.4375 7.1875 C-3.625 4.125 -3.625 4.125 -3.4375 1.1875 C-2.4375 0.1875 -2.4375 0.1875 0 0 Z " fill="#F5F5F5" transform="translate(207.4375,322.8125)"/>
<path d="M0 0 C0.33 0.99 0.66 1.98 1 3 C1.66 3 2.32 3 3 3 C4.49774064 11.64358754 3.66705399 18.15930517 -1.1875 25.5625 C-1.785625 26.366875 -2.38375 27.17125 -3 28 C-3.66 27.67 -4.32 27.34 -5 27 C-4.34 26.34 -3.68 25.68 -3 25 C-2.60235737 23.01178687 -2.26224651 21.01055661 -2 19 C-1.01 19.33 -0.02 19.66 1 20 C0.835 19.360625 0.67 18.72125 0.5 18.0625 C-0.04802584 14.70584173 -0.03151936 11.57416699 0.0625 8.18359375 C0.08145014 5.98163032 0.08145014 5.98163032 -0.5625 3.84765625 C-1 2 -1 2 0 0 Z " fill="#CEA78B" transform="translate(347,206)"/>
<path d="M0 0 C0.99 0.33 1.98 0.66 3 1 C3 1.66 3 2.32 3 3 C8.94 3 14.88 3 21 3 C21 3.33 21 3.66 21 4 C14.07 4 7.14 4 0 4 C0.66 5.98 1.32 7.96 2 10 C2 10.99 2 11.98 2 13 C1.01 13 0.02 13 -1 13 C-1 12.34 -1 11.68 -1 11 C-1.66 11 -2.32 11 -3 11 C-3 10.01 -3 9.02 -3 8 C-3.66 7.34 -4.32 6.68 -5 6 C-4.360625 5.38125 -3.72125 4.7625 -3.0625 4.125 C-0.96116416 2.17402388 -0.96116416 2.17402388 0 0 Z " fill="#E9D4C2" transform="translate(245,185)"/>
<path d="M0 0 C1.14147825 3.42443476 0.86817488 3.90744155 -0.5 7.0625 C-1.41707521 9.09350941 -1.41707521 9.09350941 -2 11 C-1.67 11.66 -1.34 12.32 -1 13 C-5.59817352 11.54794521 -5.59817352 11.54794521 -7.375 9.125 C-8.09806909 6.6665651 -7.85178626 5.38500154 -7 3 C-6.21625 2.87625 -5.4325 2.7525 -4.625 2.625 C-1.85942178 2.20882007 -1.85942178 2.20882007 0 0 Z " fill="#EFCCAD" transform="translate(347,321)"/>
<path d="M0 0 C0.33 0 0.66 0 1 0 C1.12117188 0.556875 1.24234375 1.11375 1.3671875 1.6875 C1.71802681 3.28516825 2.07520389 4.88145323 2.4375 6.4765625 C2.79286493 8.07076908 3.12884477 9.66953264 3.4375 11.2734375 C4.20377461 15.54574608 4.20377461 15.54574608 7.1875 18.4375 C8.0846875 19.2109375 8.0846875 19.2109375 9 20 C9.21194806 23.11445901 8.90351344 26.0135364 8 29 C6.44140625 30.78125 6.44140625 30.78125 5 32 C5 30.02 5 28.04 5 26 C5.66 26 6.32 26 7 26 C5.88145414 22.27385847 5.88145414 22.27385847 3 20 C2.40234375 17.96875 2.40234375 17.96875 1.9375 15.5 C1.54135157 12.46226779 1.54135157 12.46226779 0 10 C-0.07205511 8.31391034 -0.08386068 6.62499341 -0.0625 4.9375 C-0.05347656 4.01839844 -0.04445313 3.09929687 -0.03515625 2.15234375 C-0.02355469 1.44207031 -0.01195312 0.73179687 0 0 Z " fill="#E5D1C4" transform="translate(360,162)"/>
<path d="M0 0 C0.33 0 0.66 0 1 0 C1.02540728 6.4412349 1.04289098 12.88245681 1.05493164 19.32373047 C1.0599526 21.51383955 1.06677066 23.70394529 1.07543945 25.89404297 C1.08760304 29.04655788 1.09325077 32.19902836 1.09765625 35.3515625 C1.10281754 36.32678864 1.10797882 37.30201477 1.11329651 38.30679321 C1.11368069 42.98880819 0.97426071 47.39501684 0 52 C-0.33 52 -0.66 52 -1 52 C-1.12375 51.195625 -1.2475 50.39125 -1.375 49.5625 C-1.58125 48.716875 -1.7875 47.87125 -2 47 C-2.66 46.67 -3.32 46.34 -4 46 C-3.51391769 45.59343674 -3.02783539 45.18687347 -2.52702332 44.76799011 C-0.64312546 42.58681007 -0.60937543 41.55940441 -0.56762695 38.7121582 C-0.53793571 37.42115959 -0.53793571 37.42115959 -0.50764465 36.1040802 C-0.50125473 35.17899155 -0.49486481 34.25390289 -0.48828125 33.30078125 C-0.46135445 31.87550362 -0.46135445 31.87550362 -0.43388367 30.4214325 C-0.37968107 27.38516687 -0.34585296 24.34905933 -0.3125 21.3125 C-0.27933572 19.25453525 -0.2448469 17.19659138 -0.20898438 15.13867188 C-0.1239488 10.09256181 -0.05718502 5.04649944 0 0 Z " fill="#F1D6C1" transform="translate(348,303)"/>
<path d="M0 0 C0.33 0 0.66 0 1 0 C1.04898438 0.66386719 1.09796875 1.32773438 1.1484375 2.01171875 C1.54972909 6.75111076 2.11594614 10.60387433 4 15 C4.125 17.8125 4.125 17.8125 4 20 C4.66 20 5.32 20 6 20 C6 20.99 6 21.98 6 23 C6.928125 23.0928125 6.928125 23.0928125 7.875 23.1875 C10 24 10 24 11.25 26.5625 C11.4975 27.366875 11.745 28.17125 12 29 C9.525 28.01 9.525 28.01 7 27 C7 26.34 7 25.68 7 25 C6.34 25 5.68 25 5 25 C1.02366287 18.45828408 -0.14083573 13.94273686 -0.0625 6.1875 C-0.05347656 5.02605469 -0.04445312 3.86460937 -0.03515625 2.66796875 C-0.02355469 1.78753906 -0.01195312 0.90710938 0 0 Z " fill="#E2CDBE" transform="translate(129,171)"/>
<path d="M0 0 C1.21693876 2.43387753 1.31959896 4.41838846 1.5625 7.125 C1.64628906 8.03507813 1.73007813 8.94515625 1.81640625 9.8828125 C1.87699219 10.58148438 1.93757812 11.28015625 2 12 C3.32 12.33 4.64 12.66 6 13 C5.67 13.99 5.34 14.98 5 16 C5.66 16 6.32 16 7 16 C7.33 16.99 7.66 17.98 8 19 C7.34 19.99 6.68 20.98 6 22 C-1.77791487 12.39913634 -1.77791487 12.39913634 -2.625 7.0625 C-2.06970774 4.34156793 -1.49143671 2.33036987 0 0 Z " fill="#EBD6AE" transform="translate(237,180)"/>
<path d="M0 0 C0.33 0 0.66 0 1 0 C1.33 4.29 1.66 8.58 2 13 C2.99 13.33 3.98 13.66 5 14 C5 15.65 5 17.3 5 19 C6.65 19.33 8.3 19.66 10 20 C10 20.99 10 21.98 10 23 C10.99 23 11.98 23 13 23 C13.33 23.99 13.66 24.98 14 26 C11.0280615 24.87548273 8.66559313 23.77706209 6 22 C6 21.34 6 20.68 6 20 C5.34 20 4.68 20 4 20 C-0.71098704 13.71868394 -1.24568809 9.6163308 -1 2 C-0.67 1.34 -0.34 0.68 0 0 Z " fill="#DCC2AF" transform="translate(156,204)"/>
<path d="M0 0 C1.32 0 2.64 0 4 0 C4 0.99 4 1.98 4 3 C4.99 2.67 5.98 2.34 7 2 C7 3.65 7 5.3 7 7 C4.75 8.1875 4.75 8.1875 2 9 C-0.3125 7.625 -0.3125 7.625 -2 6 C-1.125 1.125 -1.125 1.125 0 0 Z " fill="#F5F5F5" transform="translate(200,332)"/>
<path d="M0 0 C0.33 0 0.66 0 1 0 C1.25394531 0.88042969 1.50789062 1.76085937 1.76953125 2.66796875 C2.28580078 4.41013672 2.28580078 4.41013672 2.8125 6.1875 C3.14894531 7.33605469 3.48539063 8.48460937 3.83203125 9.66796875 C4.92134418 12.7756073 6.31078198 15.19743373 8 18 C8.1875 21.3125 8.1875 21.3125 8 24 C4.04155631 20.72230777 2.80178147 17.17065608 1.4375 12.375 C0.02440812 6.86511037 0.02440812 6.86511037 -4 3 C-2.68 3 -1.36 3 0 3 C0 2.01 0 1.02 0 0 Z " fill="#EFCEA4" transform="translate(216,168)"/>
<path d="M0 0 C0.33 0 0.66 0 1 0 C1.19335938 0.66386719 1.38671875 1.32773437 1.5859375 2.01171875 C1.84632813 2.89472656 2.10671875 3.77773438 2.375 4.6875 C2.63023437 5.55761719 2.88546875 6.42773438 3.1484375 7.32421875 C3.9567005 9.99305851 3.9567005 9.99305851 5.0234375 12.4765625 C6.07847169 15.20277085 6.70186678 17.81763107 7.25 20.6875 C7.44078125 21.64011719 7.6315625 22.59273438 7.828125 23.57421875 C7.88484375 24.37472656 7.9415625 25.17523438 8 26 C7.34 26.66 6.68 27.32 6 28 C0.44419134 9.17995444 0.44419134 9.17995444 0 0 Z " fill="#F4E5D9" transform="translate(162,362)"/>
<path d="M0 0 C1.16711095 8.66996704 1.09744014 17.27369392 1 26 C0.67 26 0.34 26 0 26 C-0.66 18.08 -1.32 10.16 -2 2 C-4.31 2.66 -6.62 3.32 -9 4 C-11.4375 3.625 -11.4375 3.625 -13 3 C-8.51925805 -0.36055646 -5.39449293 -0.27429625 0 0 Z " fill="#F4E0CF" transform="translate(188,246)"/>
<path d="M0 0 C0.33 0.66 0.66 1.32 1 2 C-1.23192771 7.63855422 -1.23192771 7.63855422 -4.125 9 C-5.053125 9.495 -5.053125 9.495 -6 10 C-6.81584568 13.05908413 -6.81584568 13.05908413 -7 16 C-7.99 16.33 -8.98 16.66 -10 17 C-10.12375 17.969375 -10.2475 18.93875 -10.375 19.9375 C-10.58125 20.948125 -10.7875 21.95875 -11 23 C-11.66 23.33 -12.32 23.66 -13 24 C-10.93642712 14.9399324 -6.92211334 6.39451324 0 0 Z " fill="#BBC49F" transform="translate(230,127)"/>
<path d="M0 0 C0.99 0.66 1.98 1.32 3 2 C2.10539062 2.09796875 1.21078125 2.1959375 0.2890625 2.296875 C-6.61954685 3.1512446 -12.67224929 4.27596018 -19.01171875 7.1953125 C-21 8 -21 8 -24 8 C-23.67 7.01 -23.34 6.02 -23 5 C-20.36 4.67 -17.72 4.34 -15 4 C-15 3.34 -15 2.68 -15 2 C-10.04487015 -0.03287378 -5.30443635 -0.6870508 0 0 Z " fill="#9B6D48" transform="translate(258,75)"/>
<path d="M0 0 C0.66 0.33 1.32 0.66 2 1 C1.484375 1.680625 0.96875 2.36125 0.4375 3.0625 C-1.68687843 7.40362115 -0.68929897 10.60301843 0.60546875 15.10546875 C2.82687162 18.123341 5.53716334 18.09766606 9.125 18.75 C10.40632813 18.99234375 11.68765625 19.2346875 13.0078125 19.484375 C13.99523437 19.65453125 14.98265625 19.8246875 16 20 C16 20.33 16 20.66 16 21 C14.41676312 21.027193 12.83338938 21.04648306 11.25 21.0625 C9.92742187 21.07990234 9.92742187 21.07990234 8.578125 21.09765625 C6.17413482 21.00659602 4.26133426 20.80587506 2 20 C-1.4076893 16.30022305 -2.87515043 13.68546914 -3.25 8.625 C-2.98698447 4.81127485 -2.21700828 3.04838638 0 0 Z " fill="#E9D6AE" transform="translate(266,142)"/>
<path d="M0 0 C5.0799835 3.38665566 6.32188573 9.30221665 8 15 C8.35371957 18.15759419 8.26967539 20.81783041 8 24 C5.48166894 21.48166894 5.32344499 19.7064959 4.5625 16.25 C3.51224276 11.77033137 2.14364502 8.08313337 0 4 C0 2.68 0 1.36 0 0 Z " fill="#A9AE8E" transform="translate(289,136)"/>
<path d="M0 0 C-2.10325242 1.62619517 -4.20755729 3.25099532 -6.3125 4.875 C-7.20485352 5.56529297 -7.20485352 5.56529297 -8.11523438 6.26953125 C-10.70028005 8.26247149 -13.28299068 10.18866045 -16 12 C-15.71125 11.443125 -15.4225 10.88625 -15.125 10.3125 C-13.94092436 7.98588247 -13.94092436 7.98588247 -13.0625 5.375 C-12 3 -12 3 -9 1 C-2.4 -1.2 -2.4 -1.2 0 0 Z " fill="#A7724A" transform="translate(232,85)"/>
<path d="M0 0 C1.32 0 2.64 0 4 0 C4.33 0.99 4.66 1.98 5 3 C5.66 3.33 6.32 3.66 7 4 C7.625 7.0625 7.625 7.0625 8 10 C8.99 10.33 9.98 10.66 11 11 C10.01 11.33 9.02 11.66 8 12 C4.23975384 9.49316923 3.60807914 7.13506066 2 3 C1.236875 3.515625 0.47375 4.03125 -0.3125 4.5625 C-1.199375 5.036875 -2.08625 5.51125 -3 6 C-3.99 5.67 -4.98 5.34 -6 5 C-5.195625 4.731875 -4.39125 4.46375 -3.5625 4.1875 C-2.716875 3.795625 -1.87125 3.40375 -1 3 C-0.67 2.01 -0.34 1.02 0 0 Z " fill="#E4CDBD" transform="translate(207,229)"/>
<path d="M0 0 C1.3625385 2.65834042 2.5056522 5.03391321 3 8 C2.67 8.66 2.34 9.32 2 10 C1.34 10 0.68 10 0 10 C-0.268125 10.825 -0.53625 11.65 -0.8125 12.5 C-2.12524922 16.36915561 -3.55101284 20.17994294 -5 24 C-5.99 23.67 -6.98 23.34 -8 23 C-7.59007812 22.17757812 -7.18015625 21.35515625 -6.7578125 20.5078125 C-3.48110284 13.71922264 -0.98105179 7.49320593 0 0 Z " fill="#EACFBB" transform="translate(307,132)"/>
<path d="M0 0 C13.07419019 1.28253403 13.07419019 1.28253403 16.3125 4.625 C16.869375 5.40875 17.42625 6.1925 18 7 C14.6875 7.1875 14.6875 7.1875 11 7 C9.97895449 6.02149805 8.9793879 5.02019573 8 4 C4.38976901 3.26958147 4.38976901 3.26958147 1 3 C0.67 2.01 0.34 1.02 0 0 Z " fill="#D4B19A" transform="translate(273,74)"/>
<path d="M0 0 C1 3 1 3 -0.328125 5.6640625 C-1.27945313 7.12972656 -1.27945313 7.12972656 -2.25 8.625 C-2.87390625 9.60726562 -3.4978125 10.58953125 -4.140625 11.6015625 C-6 14 -6 14 -9 15 C-8.67 15.99 -8.34 16.98 -8 18 C-8.66 18.33 -9.32 18.66 -10 19 C-10.55913266 14.13915317 -8.83532702 11.63724703 -6.125 7.6875 C-5.40570313 6.61886719 -4.68640625 5.55023438 -3.9453125 4.44921875 C-3.30335938 3.64097656 -2.66140625 2.83273438 -2 2 C-1.34 2 -0.68 2 0 2 C0 1.34 0 0.68 0 0 Z " fill="#D3B39A" transform="translate(200,122)"/>
<path d="M0 0 C0 1.98 0 3.96 0 6 C0.66 6 1.32 6 2 6 C2.33 4.68 2.66 3.36 3 2 C3.042721 3.66611905 3.04063832 5.33382885 3 7 C2.67 7.33 2.34 7.66 2 8 C-0.33944736 7.71269945 -2.6739143 7.38063221 -5 7 C-5.6875 5.1875 -5.6875 5.1875 -6 3 C-4.04862098 0.26806937 -3.44686768 0 0 0 Z " fill="#F0CDAE" transform="translate(339,332)"/>
<path d="M0 0 C2.31 0 4.62 0 7 0 C10 5.75 10 5.75 10 8 C7.03824877 7.38722388 5.61941217 6.74627478 3 5 C3 4.34 3 3.68 3 3 C2.01 3 1.02 3 0 3 C0 2.01 0 1.02 0 0 Z " fill="#BF743D" transform="translate(286,84)"/>
<path d="M0 0 C10.23 0 20.46 0 31 0 C30.67 1.32 30.34 2.64 30 4 C29.26523437 3.68289063 28.53046875 3.36578125 27.7734375 3.0390625 C22.41364299 1.56317706 17.16132308 1.53150383 11.625 1.375 C9.94857422 1.31699219 9.94857422 1.31699219 8.23828125 1.2578125 C5.49234839 1.16393445 2.74641524 1.07825089 0 1 C0 0.67 0 0.34 0 0 Z " fill="#F4E7DC" transform="translate(261,407)"/>
<path d="M0 0 C1.58294782 -0.05437607 3.16644256 -0.09296271 4.75 -0.125 C5.63171875 -0.14820313 6.5134375 -0.17140625 7.421875 -0.1953125 C10 0 10 0 14 2 C10.37 2 6.74 2 3 2 C3.33 2.99 3.66 3.98 4 5 C3.01 6.485 3.01 6.485 2 8 C1.34 8 0.68 8 0 8 C0 5.36 0 2.72 0 0 Z " fill="#F6E1D0" transform="translate(315,248)"/>
<path d="M0 0 C2.95889707 2.5250412 4.19662795 5.25321087 5.6875 8.8125 C6.12449219 9.82957031 6.56148438 10.84664062 7.01171875 11.89453125 C8.03675987 15.11551027 8.18564726 17.64329684 8 21 C6.10786631 18.61426621 4.97608217 16.92824652 4 14 C4.4375 11.8125 4.4375 11.8125 5 10 C4.01 9.67 3.02 9.34 2 9 C1.26953125 6.93359375 1.26953125 6.93359375 0.8125 4.4375 C0.65394531 3.61121094 0.49539063 2.78492187 0.33203125 1.93359375 C0.16767578 0.97646484 0.16767578 0.97646484 0 0 Z " fill="#DFC7B6" transform="translate(297,89)"/>
<path d="M0 0 C0.33 0 0.66 0 1 0 C1 2.64 1 5.28 1 8 C0.01 8 -0.98 8 -2 8 C-1.67 10.31 -1.34 12.62 -1 15 C-2.32 15.33 -3.64 15.66 -5 16 C-4.34 15.67 -3.68 15.34 -3 15 C-3 13.02 -3 11.04 -3 9 C-3.66 9 -4.32 9 -5 9 C-5 8.01 -5 7.02 -5 6 C-4.34 6 -3.68 6 -3 6 C-3 5.34 -3 4.68 -3 4 C-2.34 3.67 -1.68 3.34 -1 3 C-0.67 2.01 -0.34 1.02 0 0 Z " fill="#F5E3D5" transform="translate(335,394)"/>
<path d="M0 0 C0.33 0.66 0.66 1.32 1 2 C1.99 2 2.98 2 4 2 C7 7.75 7 7.75 7 10 C5.02 10.33 3.04 10.66 1 11 C0.67 7.37 0.34 3.74 0 0 Z " fill="#F7F4EE" transform="translate(193,335)"/>
<path d="M0 0 C1.32 0.99 2.64 1.98 4 3 C0.82469891 5.72168665 -1.94254825 7.85559053 -6 9 C-8.3125 8.625 -8.3125 8.625 -10 8 C-6.92000054 4.32769295 -4.7517398 3.43197635 0 3 C0 2.01 0 1.02 0 0 Z " fill="#CEA688" transform="translate(338,232)"/>
<path d="M0 0 C0.33 0.99 0.66 1.98 1 3 C-1.77908959 7.89649118 -6.16883501 10.0476712 -10.953125 12.66796875 C-11.62859375 13.10753906 -12.3040625 13.54710938 -13 14 C-13 14.66 -13 15.32 -13 16 C-15.475 15.01 -15.475 15.01 -18 14 C-15.81674759 11.81674759 -14.05591874 11.05815786 -11.25 9.8125 C-6.12025528 7.32940618 -3.38386474 4.54150268 0 0 Z " fill="#EAEAE7" transform="translate(276,100)"/>
<path d="M0 0 C2.97 0.99 5.94 1.98 9 3 C8.01 3.66 7.02 4.32 6 5 C6.495 5.845625 6.99 6.69125 7.5 7.5625 C9.16582799 11.38002248 9.39625803 13.87891648 9 18 C8.34 18.66 7.68 19.32 7 20 C7.061875 18.80375 7.12375 17.6075 7.1875 16.375 C7.19482718 12.22781506 6.12652867 9.59874083 4 6 C3.33333333 4.66666667 2.66666667 3.33333333 2 2 C1.34 2 0.68 2 0 2 C0 1.34 0 0.68 0 0 Z " fill="#EEEDED" transform="translate(270,80)"/>
<path d="M0 0 C0 0.66 0 1.32 0 2 C-0.99 2 -1.98 2 -3 2 C-3.268125 2.5775 -3.53625 3.155 -3.8125 3.75 C-6.21368404 8.29961186 -8.00955654 10.3814778 -13 12 C-12.34 10.35 -11.68 8.7 -11 7 C-10.34 7 -9.68 7 -9 7 C-8.67 6.01 -8.34 5.02 -8 4 C-7.34 4 -6.68 4 -6 4 C-6 3.34 -6 2.68 -6 2 C-2.25 0 -2.25 0 0 0 Z " fill="#D5B39B" transform="translate(147,149)"/>
<path d="M0 0 C-0.99 1.485 -0.99 1.485 -2 3 C-4.55578411 3.44126516 -6.86632286 3.69397913 -9.4375 3.8125 C-10.11876953 3.86341797 -10.80003906 3.91433594 -11.50195312 3.96679688 C-15.29111959 4.18575948 -16.75495543 4.16336304 -20 2 C-17.79248152 1.66131223 -15.58394089 1.32928311 -13.375 1 C-12.14523437 0.814375 -10.91546875 0.62875 -9.6484375 0.4375 C-6.3833973 0.04597484 -3.28287549 -0.08080924 0 0 Z " fill="#EBD1BA" transform="translate(270,379)"/>
<path d="M0 0 C2.21460369 1.82945522 2.94372483 2.67038832 3.4375 5.5625 C3.73987379 8.17317795 3.73987379 8.17317795 6.0625 9.3125 C6.701875 9.539375 7.34125 9.76625 8 10 C7.979375 10.94875 7.95875 11.8975 7.9375 12.875 C7.77448174 15.90666283 7.77448174 15.90666283 9 18 C7.68 17.67 6.36 17.34 5 17 C5.33 14.69 5.66 12.38 6 10 C4.68 9.67 3.36 9.34 2 9 C0 2.25 0 2.25 0 0 Z " fill="#FAF3ED" transform="translate(170,392)"/>
<path d="M0 0 C1.65 0.33 3.3 0.66 5 1 C5.33 2.32 5.66 3.64 6 5 C5.01 5.495 5.01 5.495 4 6 C2.65686601 5.35330586 1.32608822 4.68096422 0 4 C-2.3243602 3.30269194 -4.65673706 2.63087848 -7 2 C-7 1.67 -7 1.34 -7 1 C-4.69 1.33 -2.38 1.66 0 2 C0 1.34 0 0.68 0 0 Z " fill="#F1CEB2" transform="translate(318,406)"/>
<path d="M0 0 C0.81726563 0.47050781 1.63453125 0.94101563 2.4765625 1.42578125 C6.52137487 3.23294243 10.0103569 3.75734982 14.375 4.1875 C15.11105469 4.26935547 15.84710938 4.35121094 16.60546875 4.43554688 C18.40254625 4.63392556 20.20114893 4.81840577 22 5 C22 5.33 22 5.66 22 6 C15.23405981 6.11381955 8.71162938 5.88021369 2 5 C1.34 3.35 0.68 1.7 0 0 Z " fill="#E5D0C2" transform="translate(312,143)"/>
<path d="M0 0 C0.33 0.66 0.66 1.32 1 2 C0.04060332 3.69036558 -0.96642853 5.35394174 -2 7 C-2.33 7.886875 -2.66 8.77375 -3 9.6875 C-4 12 -4 12 -7 14 C-7.42820102 10.36029133 -6.97413512 8.95430537 -5.125 5.6875 C-4.42375 4.800625 -3.7225 3.91375 -3 3 C-2.34 3 -1.68 3 -1 3 C-0.67 2.01 -0.34 1.02 0 0 Z " fill="#BAA08E" transform="translate(219,88)"/>
<path d="M0 0 C4.95 0 9.9 0 15 0 C14.67 0.66 14.34 1.32 14 2 C11.3828125 2.37890625 11.3828125 2.37890625 8.125 2.5625 C4.79884716 2.75886324 2.16873175 2.94375608 -1 4 C-0.67 2.68 -0.34 1.36 0 0 Z " fill="#270C04" transform="translate(269,152)"/>
<path d="M0 0 C0.66 0.33 1.32 0.66 2 1 C0.02 5.29 -1.96 9.58 -4 14 C-4.66 14 -5.32 14 -6 14 C-6.33 14.66 -6.66 15.32 -7 16 C-6.625 13.0625 -6.625 13.0625 -6 10 C-5.34 9.67 -4.68 9.34 -4 9 C-2.87293294 6.88984046 -2.87293294 6.88984046 -1.875 4.4375 C-1.34519531 3.19806641 -1.34519531 3.19806641 -0.8046875 1.93359375 C-0.53914063 1.29550781 -0.27359375 0.65742188 0 0 Z " fill="#F2DBC6" transform="translate(291,272)"/>
<path d="M0 0 C0.66 0.33 1.32 0.66 2 1 C0.07289294 11.55808656 0.07289294 11.55808656 -2 16 C-2.33 16 -2.66 16 -3 16 C-3.33266291 9.79029227 -2.45029331 5.71735105 0 0 Z " fill="#EECDA0" transform="translate(296,171)"/>
<path d="M0 0 C2.5068162 2.5068162 2.82279354 4.39163688 3.6875 7.8125 C3.95949219 8.85019531 4.23148437 9.88789063 4.51171875 10.95703125 C5.00256812 14.01600452 4.8157628 16.03806928 4 19 C3.67 19 3.34 19 3 19 C2.77213542 16.94921875 2.54427083 14.8984375 2.31640625 12.84765625 C2.18113386 10.98859771 2.18113386 10.98859771 1 10 C0.76712992 8.31816052 0.58735834 6.6287584 0.4375 4.9375 C0.35371094 4.01839844 0.26992188 3.09929687 0.18359375 2.15234375 C0.09271484 1.08693359 0.09271484 1.08693359 0 0 Z " fill="#F8ECE0" transform="translate(342,260)"/>
<path d="M0 0 C2.97 1.65 5.94 3.3 9 5 C8.67 8.3 8.34 11.6 8 15 C7.67 15 7.34 15 7 15 C6.67 12.03 6.34 9.06 6 6 C5.195625 5.7525 4.39125 5.505 3.5625 5.25 C2.716875 4.8375 1.87125 4.425 1 4 C0.67 2.68 0.34 1.36 0 0 Z " fill="#F4E2D3" transform="translate(290,241)"/>
<path d="M0 0 C2.475 0.495 2.475 0.495 5 1 C4.91253716 2.43861294 4.80434652 3.87597508 4.6875 5.3125 C4.62949219 6.11300781 4.57148438 6.91351563 4.51171875 7.73828125 C3.91793306 10.36272334 3.04219706 11.30820672 1 13 C1 11.02 1 9.04 1 7 C1.66 7 2.32 7 3 7 C1.60240095 3.45481116 1.60240095 3.45481116 0 0 Z " fill="#D2B39C" transform="translate(364,181)"/>
<path d="M0 0 C0 0.66 0 1.32 0 2 C-0.66 2 -1.32 2 -2 2 C-2.33 4.64 -2.66 7.28 -3 10 C-3.99 9.34 -4.98 8.68 -6 8 C-6.375 5 -6.375 5 -6 2 C-3 0 -3 0 0 0 Z " fill="#EDD6AE" transform="translate(256,163)"/>
<path d="M0 0 C0.8971875 0.309375 0.8971875 0.309375 1.8125 0.625 C1.4825 2.605 1.1525 4.585 0.8125 6.625 C0.27625 6.315625 -0.26 6.00625 -0.8125 5.6875 C-3.5859957 4.44672561 -6.18792837 4.0340325 -9.1875 3.625 C-8.2903125 3.191875 -8.2903125 3.191875 -7.375 2.75 C-1.52083333 -0.26071429 -1.52083333 -0.26071429 0 0 Z " fill="#F4CBAB" transform="translate(246.1875,146.375)"/>
<path d="M0 0 C0.66 0.33 1.32 0.66 2 1 C1.01 2.485 1.01 2.485 0 4 C-0.66 4 -1.32 4 -2 4 C-2 4.99 -2 5.98 -2 7 C-3.32 7.33 -4.64 7.66 -6 8 C-5.67 8.66 -5.34 9.32 -5 10 C-6.65 10 -8.3 10 -10 10 C-8.38405168 7.95880212 -6.7143618 5.95927063 -5 4 C-4.34 4 -3.68 4 -3 4 C-3 3.34 -3 2.68 -3 2 C-2.01 1.34 -1.02 0.68 0 0 Z " fill="#D7B9A2" transform="translate(230,78)"/>
<path d="M0 0 C6.71700347 -0.31985731 11.75726932 0.5206176 18 3 C18 3.33 18 3.66 18 4 C11.7945858 3.51679152 6.00054754 2.66681876 0 1 C0 0.67 0 0.34 0 0 Z " fill="#DCC2B0" transform="translate(335,149)"/>
<path d="M0 0 C0 3 0 3 -1.4375 4.5 C-1.953125 4.995 -2.46875 5.49 -3 6 C-3.33 6.99 -3.66 7.98 -4 9 C-7.63 9.33 -11.26 9.66 -15 10 C-12 8 -12 8 -8.625 6.6875 C-4.86701105 4.93809135 -2.73709018 3.06885869 0 0 Z " fill="#E5D2C4" transform="translate(189,137)"/>
<path d="M0 0 C0.66 0.66 1.32 1.32 2 2 C1.41992188 1.97679688 0.83984375 1.95359375 0.2421875 1.9296875 C-4.61411166 1.81749577 -8.42932395 2.12485085 -13 4 C-13 3.01 -13 2.02 -13 1 C-8.25502375 -0.96742918 -5.01023306 -1.15620763 0 0 Z " fill="#B0B695" transform="translate(261,115)"/>
<path d="M0 0 C6.4 0.49230769 6.4 0.49230769 9.4375 3.0625 C10.2109375 4.0215625 10.2109375 4.0215625 11 5 C10.67 5.66 10.34 6.32 10 7 C8.68 6.67 7.36 6.34 6 6 C6 4.68 6 3.36 6 2 C3.69 2 1.38 2 -1 2 C-0.67 1.34 -0.34 0.68 0 0 Z " fill="#F6E7D8" transform="translate(329,250)"/>
<path d="M0 0 C4.62 0 9.24 0 14 0 C13.67 0.66 13.34 1.32 13 2 C11.07421875 2.484375 11.07421875 2.484375 8.6875 2.75 C7.51767578 2.89695313 7.51767578 2.89695313 6.32421875 3.046875 C3.69866432 2.99392264 2.23526243 2.32990442 0 1 C0 0.67 0 0.34 0 0 Z " fill="#B46A78" transform="translate(247,195)"/>
<path d="M0 0 C0 1.32 0 2.64 0 4 C-2.97 3.505 -2.97 3.505 -6 3 C-6.33 3.66 -6.66 4.32 -7 5 C-7.33 3.68 -7.66 2.36 -8 1 C-5.29120665 -0.35439668 -2.99066732 -0.06501451 0 0 Z " fill="#C18357" transform="translate(292,81)"/>
<path d="M0 0 C7.425 0.99 7.425 0.99 15 2 C15 2.33 15 2.66 15 3 C9.16524985 3.85330338 4.55139349 4.48351814 -1 2 C-0.67 1.34 -0.34 0.68 0 0 Z " fill="#F1E5DB" transform="translate(293,410)"/>
<path d="M0 0 C0.99 0 1.98 0 3 0 C3 2.64 3 5.28 3 8 C1.68 8 0.36 8 -1 8 C-1.125 2.25 -1.125 2.25 0 0 Z " fill="#F2B99B" transform="translate(256,164)"/>
<path d="M0 0 C0.66 0.33 1.32 0.66 2 1 C2.25 8.625 2.25 8.625 0 12 C0 11.01 0 10.02 0 9 C-0.99 8.67 -1.98 8.34 -3 8 C-2.505 7.236875 -2.01 6.47375 -1.5 5.6875 C0.24368308 3.07636249 0.24368308 3.07636249 0 0 Z " fill="#E6D2AC" transform="translate(290,145)"/>
<path d="M0 0 C2 3.75 2 3.75 2 6 C2.66 6 3.32 6 4 6 C4 6.66 4 7.32 4 8 C6.97 8.495 6.97 8.495 10 9 C6.18510326 10.46726798 3.70988378 9.43336419 0 8 C0 5.36 0 2.72 0 0 Z " fill="#FEF6E9" transform="translate(198,362)"/>
<path d="M0 0 C0.99 0.33 1.98 0.66 3 1 C2.25 3.4375 2.25 3.4375 1 6 C-1.0625 6.6875 -1.0625 6.6875 -3 7 C-3.33 7.66 -3.66 8.32 -4 9 C-4 7.35 -4 5.7 -4 4 C-2.68 3.67 -1.36 3.34 0 3 C0 2.01 0 1.02 0 0 Z " fill="#C59776" transform="translate(352,200)"/>
<path d="M0 0 C3.15330554 0.60694155 5.18888867 1.6416665 7.75 3.5625 C8.67039062 4.24505859 8.67039062 4.24505859 9.609375 4.94140625 C10.29773438 5.46541016 10.29773438 5.46541016 11 6 C10.67 7.98 10.34 9.96 10 12 C8 9 8 9 7.25 7.0625 C5.46032509 4.1095364 2.88221061 2.81704582 0 1 C0 0.67 0 0.34 0 0 Z " fill="#FCF7F2" transform="translate(319,402)"/>
<path d="M0 0 C2.31 0 4.62 0 7 0 C6.67 0.99 6.34 1.98 6 3 C8.31 3 10.62 3 13 3 C13 3.66 13 4.32 13 5 C7.85611138 4.56407724 4.24514783 4.18386087 0 1 C0 0.67 0 0.34 0 0 Z " fill="#DDC2AE" transform="translate(170,230)"/>
<path d="M0 0 C0.33 0.66 0.66 1.32 1 2 C1.99 2 2.98 2 4 2 C4 2.66 4 3.32 4 4 C-0.455 4.495 -0.455 4.495 -5 5 C-5 4.34 -5 3.68 -5 3 C-2.5 1.375 -2.5 1.375 0 0 Z " fill="#EDCAB1" transform="translate(286,146)"/>
<path d="M0 0 C0.66 0.33 1.32 0.66 2 1 C2 3.15634036 1.5534764 4.92446352 1 7 C-0.65 7 -2.3 7 -4 7 C-4 6.01 -4 5.02 -4 4 C-3.34 4 -2.68 4 -2 4 C-1.34 2.68 -0.68 1.36 0 0 Z " fill="#B57647" transform="translate(232,78)"/>
<path d="M0 0 C2.475 0.495 2.475 0.495 5 1 C5 2.98 5 4.96 5 7 C2 6 2 6 0 3 C0 2.01 0 1.02 0 0 Z " fill="#F4D3B9" transform="translate(312,412)"/>
<path d="M0 0 C0.33 0 0.66 0 1 0 C1.09688221 5.44693314 1.12862175 10.63904667 0 16 C-0.33 16 -0.66 16 -1 16 C-1.12375 15.195625 -1.2475 14.39125 -1.375 13.5625 C-1.684375 12.2940625 -1.684375 12.2940625 -2 11 C-2.66 10.67 -3.32 10.34 -4 10 C-3.525625 9.649375 -3.05125 9.29875 -2.5625 8.9375 C-0.32126175 6.15836457 -0.32882342 3.4855283 0 0 Z " fill="#FAEEE4" transform="translate(348,339)"/>
<path d="M0 0 C0.99 0.33 1.98 0.66 3 1 C1.92643323 2.15498897 0.84070212 3.29867867 -0.25 4.4375 C-0.85328125 5.07558594 -1.4565625 5.71367187 -2.078125 6.37109375 C-4.10048016 8.08516306 -5.41270605 8.59358878 -8 9 C-8 8.34 -8 7.68 -8 7 C-7.13375 6.6596875 -7.13375 6.6596875 -6.25 6.3125 C-3.4336339 4.66961977 -1.91922886 2.60466773 0 0 Z " fill="#F3D8C1" transform="translate(280,289)"/>
<path d="M0 0 C1.28497537 3.85492611 0.4052209 5.40346836 -0.9375 9.1875 C-1.31777344 10.27417969 -1.69804687 11.36085937 -2.08984375 12.48046875 C-2.39019531 13.31191406 -2.69054687 14.14335937 -3 15 C-3.33 15 -3.66 15 -4 15 C-2.73076923 2.73076923 -2.73076923 2.73076923 0 0 Z " fill="#BE7F52" transform="translate(230,213)"/>
<path d="M0 0 C5.61 0 11.22 0 17 0 C17 0.33 17 0.66 17 1 C16.07316406 1.04898438 15.14632812 1.09796875 14.19140625 1.1484375 C12.99386719 1.22320312 11.79632813 1.29796875 10.5625 1.375 C8.77005859 1.47941406 8.77005859 1.47941406 6.94140625 1.5859375 C5.97074219 1.72257813 5.00007812 1.85921875 4 2 C3.67 2.66 3.34 3.32 3 4 C2.01 3.34 1.02 2.68 0 2 C0 1.34 0 0.68 0 0 Z " fill="#7C5337" transform="translate(226,150)"/>
<path d="M0 0 C-1.60149886 0.67305018 -3.20631029 1.33822227 -4.8125 2 C-6.15248047 2.556875 -6.15248047 2.556875 -7.51953125 3.125 C-10 4 -10 4 -13 4 C-12.67 3.01 -12.34 2.02 -12 1 C-10.29296875 0.234375 -10.29296875 0.234375 -8.1875 -0.25 C-7.50042969 -0.42015625 -6.81335938 -0.5903125 -6.10546875 -0.765625 C-3.80500179 -1.02170666 -2.19370273 -0.69015367 0 0 Z " fill="#A47350" transform="translate(247,79)"/>
<path d="M0 0 C0 0.99 0 1.98 0 3 C-0.66 3 -1.32 3 -2 3 C-2 3.66 -2 4.32 -2 5 C-4.31 4.67 -6.62 4.34 -9 4 C-6.3144406 1.3144406 -3.62378672 0.93950026 0 0 Z " fill="#EEC7A7" transform="translate(334,395)"/>
<path d="M0 0 C3.5875213 1.33250791 6.8364623 2.830717 10 5 C10 5.66 10 6.32 10 7 C7.29068581 6.84518205 5.53415961 6.51827919 3.5546875 4.59765625 C2.32320358 3.10228292 1.1570163 1.5537076 0 0 Z " fill="#F0CCAD" transform="translate(313,351)"/>
<path d="M0 0 C1.98 0.495 1.98 0.495 4 1 C4 2.32 4 3.64 4 5 C3.01 5.33 2.02 5.66 1 6 C0.34 5.34 -0.32 4.68 -1 4 C-0.625 1.875 -0.625 1.875 0 0 Z " fill="#F9D6B8" transform="translate(324,346)"/>
<path d="M0 0 C2.0625 2.3125 2.0625 2.3125 4 5 C3.67 5.99 3.34 6.98 3 8 C2.01 7.34 1.02 6.68 0 6 C0 5.34 0 4.68 0 4 C-1.32 3.34 -2.64 2.68 -4 2 C-2.68 2 -1.36 2 0 2 C0 1.34 0 0.68 0 0 Z " fill="#C8C998" transform="translate(288,138)"/>
<path d="M0 0 C0.33 0 0.66 0 1 0 C1 3.3 1 6.6 1 10 C-0.98 10.33 -2.96 10.66 -5 11 C-4.34 10.01 -3.68 9.02 -3 8 C-2.34 8 -1.68 8 -1 8 C-0.67 5.36 -0.34 2.72 0 0 Z " fill="#FEF4E8" transform="translate(310,360)"/>
<path d="M0 0 C0.66 0 1.32 0 2 0 C2.33 1.98 2.66 3.96 3 6 C3.99 6.33 4.98 6.66 6 7 C5.01 7.33 4.02 7.66 3 8 C2.01 7.34 1.02 6.68 0 6 C-0.1875 2.875 -0.1875 2.875 0 0 Z " fill="#CEA68C" transform="translate(212,233)"/>
<path d="M0 0 C0.65234375 1.765625 0.65234375 1.765625 1 4 C0.00390625 5.921875 0.00390625 5.921875 -1.4375 7.75 C-1.91058594 8.36359375 -2.38367188 8.9771875 -2.87109375 9.609375 C-3.24363281 10.06828125 -3.61617188 10.5271875 -4 11 C-4.66 10.67 -5.32 10.34 -6 10 C-5.34 9.34 -4.68 8.68 -4 8 C-3.60235737 6.01178687 -3.26224651 4.01055661 -3 2 C-2.01 2.33 -1.02 2.66 0 3 C0 2.01 0 1.02 0 0 Z " fill="#E0C8B6" transform="translate(348,223)"/>
<path d="M0 0 C2.5 1.5625 2.5 1.5625 5 4 C5.3125 7.75 5.3125 7.75 5 11 C0 4.40909091 0 4.40909091 0 0 Z " fill="#C28256" transform="translate(227,197)"/>
<path d="M0 0 C3.21043882 1.38188453 5.04936365 2.92421903 7.25 5.625 C8.03117187 6.57246094 8.03117187 6.57246094 8.828125 7.5390625 C9.40820312 8.26222656 9.40820312 8.26222656 10 9 C9.67 9.66 9.34 10.32 9 11 C5.36440339 7.56638098 2.63886654 4.2026393 0 0 Z " fill="#A3A989" transform="translate(279,125)"/>
<path d="M0 0 C1.65 0 3.3 0 5 0 C4.67 1.65 4.34 3.3 4 5 C2.68 5 1.36 5 0 5 C0 3.35 0 1.7 0 0 Z " fill="#382722" transform="translate(245,189)"/>
<path d="M0 0 C0.33 0.66 0.66 1.32 1 2 C-0.32 2.33 -1.64 2.66 -3 3 C-3 3.66 -3 4.32 -3 5 C-3.66 5 -4.32 5 -5 5 C-5.33 6.65 -5.66 8.3 -6 10 C-6.96203259 7.00700971 -7.4389687 4.87793741 -6 2 C-2.9375 0.75 -2.9375 0.75 0 0 Z " fill="#BD8358" transform="translate(304,168)"/>
<path d="M0 0 C0.33 0.66 0.66 1.32 1 2 C-0.375 4 -0.375 4 -2 6 C-2.66 6 -3.32 6 -4 6 C-3.67 6.99 -3.34 7.98 -3 9 C-3.99 9.495 -3.99 9.495 -5 10 C-5.3125 7.8125 -5.3125 7.8125 -5 5 C-2.5 2.1875 -2.5 2.1875 0 0 Z " fill="#C79978" transform="translate(195,131)"/>
<path d="M0 0 C5.99725275 2.10714286 5.99725275 2.10714286 8 5 C7.5703125 7.1015625 7.5703125 7.1015625 7 9 C5.83037314 7.69013727 4.66437056 6.3770374 3.5 5.0625 C2.8503125 4.33160156 2.200625 3.60070312 1.53125 2.84765625 C0 1 0 1 0 0 Z " fill="#AE7C58" transform="translate(294,94)"/>
<path d="M0 0 C0.66 0.33 1.32 0.66 2 1 C2.625 3.5625 2.625 3.5625 3 6 C3.99 6.33 4.98 6.66 6 7 C4.35 7.33 2.7 7.66 1 8 C0.34 5.69 -0.32 3.38 -1 1 C-0.67 0.67 -0.34 0.34 0 0 Z " fill="#F8EFE9" transform="translate(180,407)"/>
<path d="M0 0 C0.99 0 1.98 0 3 0 C2.75 2.375 2.75 2.375 2 5 C-0.0625 6.3125 -0.0625 6.3125 -2 7 C-1.34 4.69 -0.68 2.38 0 0 Z " fill="#BB7B4B" transform="translate(296,179)"/>
<path d="M0 0 C5.875 3.625 5.875 3.625 7 7 C5.68 7 4.36 7 3 7 C2.67 6.01 2.34 5.02 2 4 C1.34 3.67 0.68 3.34 0 3 C0 2.01 0 1.02 0 0 Z " fill="#F1D9C5" transform="translate(320,403)"/>
<path d="M0 0 C3.68754757 0.49831724 5.60490662 1.10067643 8 4 C7.01 4.33 6.02 4.66 5 5 C3.35 3.35 1.7 1.7 0 0 Z " fill="#D9C0AC" transform="translate(295,234)"/>
<path d="M0 0 C2.63636364 5.27272727 2.63636364 5.27272727 3 8 C2.34 8.66 1.68 9.32 1 10 C0.34 9.67 -0.32 9.34 -1 9 C-0.67 6.03 -0.34 3.06 0 0 Z " fill="#B58B6A" transform="translate(307,132)"/>
<path d="M0 0 C0.99 0.33 1.98 0.66 3 1 C1.35 2.65 -0.3 4.3 -2 6 C-2.99 5.67 -3.98 5.34 -5 5 C-3.35 3.35 -1.7 1.7 0 0 Z " fill="#F5E9DE" transform="translate(221,92)"/>
<path d="M0 0 C2.31 0 4.62 0 7 0 C6.67 1.32 6.34 2.64 6 4 C4.02 3.34 2.04 2.68 0 2 C0 1.34 0 0.68 0 0 Z " fill="#F5DDC9" transform="translate(285,407)"/>
<path d="M0 0 C0.99 0 1.98 0 3 0 C2.67 1.98 2.34 3.96 2 6 C1.01 5.34 0.02 4.68 -1 4 C-0.67 2.68 -0.34 1.36 0 0 Z " fill="#F8D6B9" transform="translate(342,325)"/>
<path d="M0 0 C1.32 1.32 2.64 2.64 4 4 C3.67 4.99 3.34 5.98 3 7 C2.34 6.67 1.68 6.34 1 6 C1 5.01 1 4.02 1 3 C0.01 3.33 -0.98 3.66 -2 4 C-1.34 2.68 -0.68 1.36 0 0 Z " fill="#BF7E4F" transform="translate(220,188)"/>
<path d="M0 0 C1.32 0 2.64 0 4 0 C4 1.65 4 3.3 4 5 C2.35 5 0.7 5 -1 5 C-0.34 4.67 0.32 4.34 1 4 C0.67 2.68 0.34 1.36 0 0 Z " fill="#34241D" transform="translate(264,189)"/>
<path d="M0 0 C0.33 0 0.66 0 1 0 C1.36923077 7.38461538 1.36923077 7.38461538 -0.5 10.5 C-0.995 10.995 -1.49 11.49 -2 12 C-2 10.02 -2 8.04 -2 6 C-1.34 6 -0.68 6 0 6 C0 4.02 0 2.04 0 0 Z " fill="#DCD2A6" transform="translate(280,182)"/>
<path d="M0 0 C2.64 0 5.28 0 8 0 C6.875 1.5625 6.875 1.5625 5 3 C1.8125 2.6875 1.8125 2.6875 -1 2 C-0.67 1.34 -0.34 0.68 0 0 Z " fill="#B97A4D" transform="translate(315,148)"/>
<path d="M0 0 C2.97 0.99 5.94 1.98 9 3 C9 3.33 9 3.66 9 4 C6.69 4 4.38 4 2 4 C2 3.34 2 2.68 2 2 C1.34 2 0.68 2 0 2 C0 1.34 0 0.68 0 0 Z " fill="#F2E7DB" transform="translate(270,80)"/>
<path d="M0 0 C1.32 0.66 2.64 1.32 4 2 C2.35 3.65 0.7 5.3 -1 7 C-0.67 4.69 -0.34 2.38 0 0 Z " fill="#DABAA3" transform="translate(291,231)"/>
<path d="M0 0 C0.66 0 1.32 0 2 0 C0.70700306 2.88437779 -0.65941363 4.87219421 -3 7 C-3.66 6.67 -4.32 6.34 -5 6 C-4.34 5.01 -3.68 4.02 -3 3 C-2.34 3 -1.68 3 -1 3 C-0.67 2.01 -0.34 1.02 0 0 Z " fill="#BE8355" transform="translate(287,195)"/>
<path d="M0 0 C1.875 0.1875 1.875 0.1875 4 1 C5.25 3.5625 5.25 3.5625 6 6 C3.5625 5.25 3.5625 5.25 1 4 C0.1875 1.875 0.1875 1.875 0 0 Z " fill="#CFA88B" transform="translate(135,194)"/>
<path d="M0 0 C0.33 0 0.66 0 1 0 C1.25 2.8125 1.25 2.8125 1 6 C-1 7.875 -1 7.875 -3 9 C-2.44271087 5.65626525 -1.64826111 2.96687001 0 0 Z " fill="#DDC6B5" transform="translate(133,161)"/>
<path d="M0 0 C0.66 0 1.32 0 2 0 C2 1.32 2 2.64 2 4 C1.360625 4.12375 0.72125 4.2475 0.0625 4.375 C-0.9584375 4.684375 -0.9584375 4.684375 -2 5 C-2.33 5.66 -2.66 6.32 -3 7 C-2.38722388 4.03824877 -1.74627478 2.61941217 0 0 Z " fill="#DBC0AC" transform="translate(202,117)"/>
<path d="M0 0 C0.66 0 1.32 0 2 0 C3.35439668 2.70879335 3.06501451 5.00933268 3 8 C1.10786631 5.61426621 -0.02391783 3.92824652 -1 1 C-0.67 0.67 -0.34 0.34 0 0 Z " fill="#D4C6BC" transform="translate(302,102)"/>
<path d="M0 0 C0.33 0.66 0.66 1.32 1 2 C-0.25 4.5625 -0.25 4.5625 -2 7 C-2.99 7.33 -3.98 7.66 -5 8 C-4.34 6.35 -3.68 4.7 -3 3 C-2.34 3 -1.68 3 -1 3 C-0.67 2.01 -0.34 1.02 0 0 Z " fill="#DAC3B2" transform="translate(219,88)"/>
</svg>
